<svg width="381" height="241" viewBox="0 0 381 241" fill="none" xmlns="http://www.w3.org/2000/svg">
<g clip-path="url(#clip0_243_1588)">
<path d="M188.542 40.9702C194.925 40.9702 200.1 35.9709 200.1 29.8039C200.1 23.6368 194.925 18.6375 188.542 18.6375C182.158 18.6375 176.983 23.6368 176.983 29.8039C176.983 35.9709 182.158 40.9702 188.542 40.9702Z" fill="#274A8E"/>
<path d="M214.409 24.5164C214.083 23.4838 213.452 22.5659 212.592 21.8756C211.733 21.1853 210.684 20.7528 209.574 20.6313C209.548 20.6292 209.522 20.6292 209.496 20.6313C209.465 20.6219 209.433 20.6149 209.401 20.6104C205.531 20.1252 201.228 21.3046 198.332 23.8724C197.257 24.8106 196.397 25.956 195.808 27.2347C195.271 26.5263 194.564 25.955 193.747 25.5702C192.93 25.1855 192.029 24.9989 191.12 25.0266C189.949 25.1014 188.83 25.5235 187.916 26.2352C187.002 26.9469 186.337 27.9137 186.012 29.0037C185.977 29.1369 185.986 29.2777 186.04 29.405C186.094 29.5324 186.189 29.6395 186.311 29.7105C186.659 29.9982 187.073 30.2017 187.519 30.3044C188.475 30.5009 189.441 30.6807 190.406 30.8438C192.293 31.1617 194.191 31.4196 196.098 31.6175C197.358 31.7472 198.621 31.8503 199.886 31.927C202.501 32.0859 205.128 32.1236 207.747 32.0441C209.046 32.0023 210.292 31.9605 211.478 31.4084C212.343 30.9978 213.081 30.3765 213.621 29.606C214.129 28.8648 214.463 28.0249 214.599 27.1456C214.736 26.2663 214.671 25.3688 214.409 24.5164Z" fill="#EDF2F3"/>
<path d="M190.631 40.7846C190.609 40.3167 190.528 39.8532 190.389 39.4045C190.061 38.372 189.429 37.4544 188.569 36.7642C187.71 36.074 186.66 35.6414 185.549 35.5194C185.525 35.5173 185.5 35.5173 185.476 35.5194C185.443 35.5104 185.41 35.5034 185.376 35.4985C183.234 35.245 181.061 35.4608 179.017 36.13C175.875 37.1462 173.117 39.1954 171.788 42.1228C171.251 41.414 170.543 40.8424 169.725 40.4576C168.907 40.0728 168.005 39.8865 167.096 39.9147C165.924 39.9895 164.805 40.4116 163.891 41.1233C162.977 41.835 162.313 42.8018 161.988 43.8918C161.954 44.025 161.965 44.1651 162.019 44.292C162.072 44.4189 162.166 44.5262 162.287 44.5986C162.635 44.8855 163.049 45.0889 163.494 45.1925C164.455 45.389 165.416 45.5688 166.386 45.7319C168.273 46.0498 170.169 46.3077 172.074 46.5056C175.943 46.9069 179.837 47.0495 183.727 46.9322C185.021 46.8903 186.272 46.8485 187.458 46.2965C188.321 45.8857 189.058 45.2644 189.597 44.494C190.356 43.4016 190.719 42.0974 190.631 40.7846Z" fill="#EDF2F3"/>
<path d="M341.164 176.278C341.33 183.892 340.242 191.483 337.942 198.766C337.861 199.031 337.765 199.295 337.668 199.56H290.244C290.922 196.335 291.998 193.2 293.45 190.222C297.396 182.13 303.84 175.204 310.203 168.326C318.966 158.848 327.52 149.448 328.873 137.123C332.346 142.239 335.118 147.768 337.12 153.572C334.67 154.449 332.42 155.782 330.5 157.494C329.968 157.977 329.404 158.677 329.678 159.346C329.936 159.906 330.645 160.093 331.273 160.218C332.787 160.498 334.301 160.778 335.815 161.042C337.007 161.276 338.216 161.494 339.424 161.712C340.486 166.502 341.068 171.38 341.164 176.278Z" fill="#F8F8F8"/>
<path d="M381 171.236C373.397 175.703 368.564 182.612 364.617 190.347C361.183 191.103 358.013 192.712 355.419 195.016C354.872 195.498 354.308 196.198 354.598 196.868C354.84 197.428 355.564 197.615 356.193 197.739C357.691 198.019 359.221 198.3 360.719 198.564C360.574 198.891 360.429 199.233 360.284 199.56H310.025C312.307 196.587 314.833 193.798 317.58 191.218C318.176 190.643 318.788 190.098 319.417 189.538C325.823 183.944 333.18 179.459 341.163 176.278C353.74 171.199 367.493 169.458 381 171.236Z" fill="#F8F8F8"/>
<path d="M318.402 199.56H273.652C273.407 196.098 273.429 192.623 273.716 189.164C275.504 167.797 287.537 147.441 305.692 135.115C303.372 143.099 304.564 151.036 306.981 159.004C306.642 159.113 306.304 159.206 305.998 159.331C303.547 160.208 301.298 161.54 299.377 163.252C298.846 163.735 298.282 164.435 298.556 165.104C298.797 165.665 299.522 165.851 300.15 165.976C301.665 166.256 303.179 166.536 304.677 166.801C305.885 167.034 307.093 167.252 308.301 167.485C308.865 167.579 309.429 167.688 309.993 167.797C310.073 167.983 310.122 168.155 310.202 168.326C313.037 175.874 316.13 183.484 317.58 191.219C317.939 193.159 318.186 195.118 318.321 197.086C318.369 197.91 318.402 198.735 318.402 199.56Z" fill="#F8F8F8"/>
<path d="M74.5121 176.278C74.6782 183.892 73.5907 191.483 71.2904 198.766C71.2098 199.031 71.1132 199.295 71.0165 199.56H23.5928C24.2707 196.335 25.347 193.2 26.7985 190.222C30.745 182.13 37.1884 175.204 43.5514 168.326C52.3144 158.848 60.8681 149.448 62.2213 137.123C65.6948 142.239 68.4671 147.768 70.4689 153.572C68.0181 154.449 65.7689 155.782 63.8483 157.494C63.3166 157.977 62.7528 158.677 63.0267 159.346C63.2844 159.906 63.9932 160.093 64.6214 160.218C66.1356 160.498 67.6499 160.778 69.1641 161.042C70.3561 161.276 71.5642 161.494 72.7724 161.712C73.8343 166.502 74.4169 171.38 74.5121 176.278Z" fill="#F8F8F8"/>
<path d="M114.348 171.236C106.745 175.703 101.913 182.612 97.9661 190.347C94.5317 191.103 91.3611 192.712 88.768 195.016C88.2203 195.498 87.6565 196.198 87.9465 196.868C88.1881 197.428 88.9131 197.615 89.5412 197.739C91.0393 198.019 92.5696 198.3 94.0677 198.564C93.9228 198.891 93.7778 199.233 93.6329 199.56H43.374C45.6555 196.587 48.1821 193.798 50.929 191.218C51.525 190.643 52.1371 190.098 52.7654 189.538C59.1721 183.944 66.5286 179.459 74.512 176.278C87.0887 171.199 100.842 169.458 114.348 171.236Z" fill="#F8F8F8"/>
<path d="M51.7502 199.56H7.00047C6.7561 196.098 6.77766 192.623 7.06497 189.164C8.853 167.797 20.8861 147.441 39.0405 135.115C36.7209 143.099 37.9129 151.036 40.3292 159.004C39.9909 159.113 39.6526 159.206 39.3466 159.331C36.8958 160.208 34.6466 161.54 32.726 163.252C32.1944 163.735 31.6306 164.435 31.9044 165.104C32.146 165.665 32.8709 165.851 33.4991 165.976C35.0133 166.256 36.5275 166.536 38.0256 166.801C39.2338 167.034 40.4419 167.252 41.6501 167.485C42.2138 167.579 42.7777 167.688 43.3414 167.797C43.422 167.983 43.4704 168.155 43.5509 168.326C46.386 175.874 49.4788 183.484 50.9286 191.219C51.2875 193.159 51.5349 195.118 51.6697 197.086C51.718 197.91 51.7502 198.735 51.7502 199.56Z" fill="#F8F8F8"/>
<path d="M218.347 181.409L258.331 184.838L258.76 184.876V20.0446C258.617 19.9484 258.474 19.8522 258.331 19.756C249.998 14.1248 240.984 9.49857 231.489 5.98035L229.446 33.2055L229.259 35.698L227.238 62.6973L226.615 71.0029L218.42 180.447L218.347 181.409Z" fill="#EDF2F3"/>
<path d="M119.465 16.975C119.18 17.1506 118.894 17.3262 118.608 17.5103V184.876L119.465 184.801L159.017 181.409L158.944 180.447L150.749 71.0029L150.126 62.6973L148.105 35.698L147.918 33.2055L145.776 4.65463C136.535 7.74908 127.704 11.8843 119.465 16.975Z" fill="#EDF2F3"/>
<path d="M118.608 17.5102C118.032 17.8699 117.457 18.2379 116.89 18.6101V187.159C116.89 191.371 119.474 194.9 122.928 195.8C123.493 195.947 124.075 196.022 124.66 196.021H253.137C253.721 196.022 254.302 195.947 254.865 195.8C256.149 195.455 257.312 194.782 258.232 193.851C259.987 192.039 260.946 189.64 260.907 187.159V21.5417C260.198 21.0357 259.483 20.5339 258.76 20.0446C258.618 19.9484 258.475 19.8522 258.332 19.756V187.159C258.333 187.702 258.266 188.243 258.133 188.77C257.522 191.258 255.509 193.081 253.137 193.081H124.66C121.794 193.081 119.465 190.426 119.465 187.159V16.9749C119.18 17.1506 118.894 17.3262 118.608 17.5102Z" fill="#EDF2F3"/>
<path d="M259.619 33.2072H118.176V35.6992H259.619V33.2072Z" fill="#EDF2F3"/>
<path d="M216.3 1.41772C215.443 1.2128 214.585 1.02042 213.72 0.840591V68.5104H216.3V1.41772Z" fill="#EDF2F3"/>
<path d="M164.077 0C163.216 0.154736 162.354 0.313655 161.497 0.485119V68.5104H164.077V0Z" fill="#EDF2F3"/>
<path d="M90.4453 191.659C90.4447 193.089 90.7283 194.506 91.2808 195.833C91.4929 196.347 91.7462 196.845 92.0383 197.322C92.4155 197.943 92.8533 198.529 93.3456 199.07C94.4331 200.267 95.7725 201.226 97.2745 201.883C98.7765 202.54 100.406 202.88 102.055 202.88H271.444C274.523 202.88 277.476 201.698 279.653 199.594C281.83 197.491 283.053 194.638 283.053 191.663C283.053 188.689 281.83 185.836 279.653 183.732C277.476 181.629 274.523 180.447 271.444 180.447H102.055C98.9776 180.45 96.0271 181.632 93.8506 183.734C91.6741 185.836 90.4495 188.686 90.4453 191.659Z" fill="#EDF2F3"/>
<path d="M118.176 71.0038L258.76 71.0038V62.6968L118.176 62.6968V71.0038Z" fill="#EDF2F3"/>
<path d="M194.486 64.7736H182.449C182.449 63.5619 182.947 62.3998 183.834 61.5429C184.721 60.6861 185.923 60.2048 187.178 60.2048H189.757C190.378 60.2048 190.993 60.3229 191.567 60.5525C192.141 60.7821 192.662 61.1187 193.101 61.5429C193.54 61.9672 193.889 62.4709 194.126 63.0252C194.364 63.5795 194.486 64.1736 194.486 64.7736H194.486Z" fill="#EDF2F3"/>
<path d="M0 198.066C3.7605 202.371 7.8279 206.416 12.1725 210.173H361.321C365.666 206.416 369.733 202.371 373.494 198.066H0Z" fill="#0E1A32"/>
<path d="M171.718 157.58V200.471H202.82V157.58C202.82 157.271 202.719 156.971 202.529 156.722C202.34 156.474 202.073 156.291 201.768 156.2C201.624 156.154 201.474 156.131 201.322 156.133H173.22C173.023 156.132 172.828 156.169 172.646 156.242C172.463 156.315 172.298 156.421 172.158 156.555C172.019 156.69 171.908 156.849 171.833 157.025C171.757 157.201 171.718 157.389 171.718 157.58ZM183.856 172.317C183.864 171.472 184.217 170.664 184.839 170.069C185.461 169.473 186.301 169.14 187.176 169.14C188.051 169.14 188.891 169.473 189.513 170.069C190.134 170.664 190.488 171.472 190.496 172.317V177.294C190.491 178.142 190.14 178.953 189.518 179.551C188.895 180.149 188.053 180.485 187.176 180.485C186.298 180.485 185.456 180.149 184.834 179.551C184.212 178.953 183.86 178.142 183.856 177.294V172.317Z" fill="#2F2E41"/>
<path d="M171.622 199.099V203.235C171.623 203.449 171.711 203.655 171.867 203.807C172.024 203.959 172.236 204.045 172.458 204.046H202.079C202.301 204.045 202.514 203.959 202.67 203.807C202.827 203.655 202.915 203.45 202.915 203.235V199.099H171.622Z" fill="#0E1A32"/>
<path d="M122.789 92.9587V171.272C122.79 172.27 123.201 173.227 123.931 173.932C124.661 174.638 125.652 175.035 126.685 175.036H246.808C247.841 175.035 248.831 174.638 249.562 173.932C250.292 173.227 250.703 172.27 250.704 171.272V92.9587C250.701 91.9615 250.29 91.006 249.56 90.3013C248.83 89.5966 247.84 89.2003 246.808 89.199H126.685C125.653 89.2003 124.663 89.5966 123.933 90.3013C123.203 91.006 122.792 91.9615 122.789 92.9587Z" fill="#0E1A32"/>
<path d="M125.607 93.933V170.306C125.608 170.839 125.828 171.35 126.218 171.727C126.609 172.104 127.138 172.316 127.69 172.317H245.808C246.36 172.316 246.889 172.104 247.28 171.727C247.67 171.35 247.89 170.839 247.89 170.306V93.933C247.89 93.3992 247.671 92.8871 247.281 92.5092C246.891 92.1313 246.361 91.9184 245.808 91.9173H127.69C127.137 91.9185 126.607 92.1313 126.217 92.5092C125.827 92.8871 125.607 93.3992 125.607 93.933Z" fill="#1BA168"/>
<path d="M149.693 205.021C149.813 205.167 149.966 205.284 150.14 205.364C150.314 205.445 150.505 205.486 150.697 205.485H220.97C221.163 205.485 221.352 205.443 221.526 205.363C221.699 205.283 221.852 205.167 221.973 205.023C222.094 204.879 222.18 204.71 222.226 204.53C222.271 204.349 222.274 204.161 222.234 203.98L221.144 198.974C221.098 198.769 221.001 198.58 220.86 198.421C220.72 198.263 220.54 198.141 220.338 198.066C220.192 198.011 220.037 197.982 219.88 197.982H151.784C151.627 197.982 151.471 198.011 151.325 198.066C151.123 198.141 150.944 198.263 150.803 198.421C150.662 198.58 150.565 198.769 150.52 198.974L149.429 203.98C149.39 204.161 149.394 204.349 149.439 204.529C149.485 204.709 149.572 204.877 149.693 205.021Z" fill="#2F2E41"/>
<path d="M217.427 200.139H219.169C219.285 200.139 219.38 200.047 219.38 199.935V199.088C219.38 198.975 219.285 198.884 219.169 198.884H217.427C217.31 198.884 217.215 198.975 217.215 199.088V199.935C217.215 200.047 217.31 200.139 217.427 200.139Z" fill="#0E1A32"/>
<path d="M213.099 200.139H214.84C214.957 200.139 215.052 200.047 215.052 199.935V199.088C215.052 198.975 214.957 198.884 214.84 198.884H213.099C212.982 198.884 212.887 198.975 212.887 199.088V199.935C212.887 200.047 212.982 200.139 213.099 200.139Z" fill="#0E1A32"/>
<path d="M208.77 200.139H210.511C210.628 200.139 210.723 200.047 210.723 199.935V199.088C210.723 198.975 210.628 198.884 210.511 198.884H208.77C208.653 198.884 208.558 198.975 208.558 199.088V199.935C208.558 200.047 208.653 200.139 208.77 200.139Z" fill="#0E1A32"/>
<path d="M204.44 200.139H206.182C206.299 200.139 206.394 200.047 206.394 199.935V199.088C206.394 198.975 206.299 198.884 206.182 198.884H204.44C204.324 198.884 204.229 198.975 204.229 199.088V199.935C204.229 200.047 204.324 200.139 204.44 200.139Z" fill="#0E1A32"/>
<path d="M200.112 200.139H201.854C201.971 200.139 202.065 200.047 202.065 199.935V199.088C202.065 198.975 201.971 198.884 201.854 198.884H200.112C199.996 198.884 199.901 198.975 199.901 199.088V199.935C199.901 200.047 199.996 200.139 200.112 200.139Z" fill="#0E1A32"/>
<path d="M195.783 200.139H197.525C197.642 200.139 197.736 200.047 197.736 199.935V199.088C197.736 198.975 197.642 198.884 197.525 198.884H195.783C195.667 198.884 195.572 198.975 195.572 199.088V199.935C195.572 200.047 195.667 200.139 195.783 200.139Z" fill="#0E1A32"/>
<path d="M191.454 200.139H193.196C193.313 200.139 193.407 200.047 193.407 199.935V199.088C193.407 198.975 193.313 198.884 193.196 198.884H191.454C191.337 198.884 191.243 198.975 191.243 199.088V199.935C191.243 200.047 191.337 200.139 191.454 200.139Z" fill="#0E1A32"/>
<path d="M187.126 200.139H188.868C188.984 200.139 189.079 200.047 189.079 199.935V199.088C189.079 198.975 188.984 198.884 188.868 198.884H187.126C187.009 198.884 186.915 198.975 186.915 199.088V199.935C186.915 200.047 187.009 200.139 187.126 200.139Z" fill="#0E1A32"/>
<path d="M182.797 200.139H184.539C184.655 200.139 184.75 200.047 184.75 199.935V199.088C184.75 198.975 184.655 198.884 184.539 198.884H182.797C182.68 198.884 182.586 198.975 182.586 199.088V199.935C182.586 200.047 182.68 200.139 182.797 200.139Z" fill="#0E1A32"/>
<path d="M178.468 200.139H180.21C180.326 200.139 180.421 200.047 180.421 199.935V199.088C180.421 198.975 180.326 198.884 180.21 198.884H178.468C178.351 198.884 178.257 198.975 178.257 199.088V199.935C178.257 200.047 178.351 200.139 178.468 200.139Z" fill="#0E1A32"/>
<path d="M174.14 200.139H175.881C175.998 200.139 176.093 200.047 176.093 199.935V199.088C176.093 198.975 175.998 198.884 175.881 198.884H174.14C174.023 198.884 173.928 198.975 173.928 199.088V199.935C173.928 200.047 174.023 200.139 174.14 200.139Z" fill="#0E1A32"/>
<path d="M169.811 200.139H171.552C171.669 200.139 171.764 200.047 171.764 199.935V199.088C171.764 198.975 171.669 198.884 171.552 198.884H169.811C169.694 198.884 169.599 198.975 169.599 199.088V199.935C169.599 200.047 169.694 200.139 169.811 200.139Z" fill="#0E1A32"/>
<path d="M165.481 200.139H167.223C167.34 200.139 167.435 200.047 167.435 199.935V199.088C167.435 198.975 167.34 198.884 167.223 198.884H165.481C165.365 198.884 165.27 198.975 165.27 199.088V199.935C165.27 200.047 165.365 200.139 165.481 200.139Z" fill="#0E1A32"/>
<path d="M161.153 200.139H162.895C163.012 200.139 163.106 200.047 163.106 199.935V199.088C163.106 198.975 163.012 198.884 162.895 198.884H161.153C161.037 198.884 160.942 198.975 160.942 199.088V199.935C160.942 200.047 161.037 200.139 161.153 200.139Z" fill="#0E1A32"/>
<path d="M156.824 200.139H158.566C158.683 200.139 158.777 200.047 158.777 199.935V199.088C158.777 198.975 158.683 198.884 158.566 198.884H156.824C156.708 198.884 156.613 198.975 156.613 199.088V199.935C156.613 200.047 156.708 200.139 156.824 200.139Z" fill="#0E1A32"/>
<path d="M152.496 200.139H154.238C154.355 200.139 154.449 200.047 154.449 199.935V199.088C154.449 198.975 154.355 198.884 154.238 198.884H152.496C152.379 198.884 152.285 198.975 152.285 199.088V199.935C152.285 200.047 152.379 200.139 152.496 200.139Z" fill="#0E1A32"/>
<path d="M217.479 202.23H219.22C219.337 202.23 219.432 202.138 219.432 202.026V201.179C219.432 201.067 219.337 200.975 219.22 200.975H217.479C217.362 200.975 217.267 201.067 217.267 201.179V202.026C217.267 202.138 217.362 202.23 217.479 202.23Z" fill="#0E1A32"/>
<path d="M213.149 202.23H214.891C215.008 202.23 215.103 202.138 215.103 202.026V201.179C215.103 201.067 215.008 200.975 214.891 200.975H213.149C213.033 200.975 212.938 201.067 212.938 201.179V202.026C212.938 202.138 213.033 202.23 213.149 202.23Z" fill="#0E1A32"/>
<path d="M208.82 202.23H210.562C210.679 202.23 210.773 202.138 210.773 202.026V201.179C210.773 201.067 210.679 200.975 210.562 200.975H208.82C208.704 200.975 208.609 201.067 208.609 201.179V202.026C208.609 202.138 208.704 202.23 208.82 202.23Z" fill="#0E1A32"/>
<path d="M204.492 202.23H206.234C206.351 202.23 206.445 202.138 206.445 202.026V201.179C206.445 201.067 206.351 200.975 206.234 200.975H204.492C204.375 200.975 204.281 201.067 204.281 201.179V202.026C204.281 202.138 204.375 202.23 204.492 202.23Z" fill="#0E1A32"/>
<path d="M200.163 202.23H201.905C202.022 202.23 202.116 202.138 202.116 202.026V201.179C202.116 201.067 202.022 200.975 201.905 200.975H200.163C200.046 200.975 199.952 201.067 199.952 201.179V202.026C199.952 202.138 200.046 202.23 200.163 202.23Z" fill="#0E1A32"/>
<path d="M195.834 202.23H197.576C197.692 202.23 197.787 202.138 197.787 202.026V201.179C197.787 201.067 197.692 200.975 197.576 200.975H195.834C195.717 200.975 195.623 201.067 195.623 201.179V202.026C195.623 202.138 195.717 202.23 195.834 202.23Z" fill="#0E1A32"/>
<path d="M191.506 202.23H193.248C193.364 202.23 193.459 202.138 193.459 202.026V201.179C193.459 201.067 193.364 200.975 193.248 200.975H191.506C191.389 200.975 191.295 201.067 191.295 201.179V202.026C191.295 202.138 191.389 202.23 191.506 202.23Z" fill="#0E1A32"/>
<path d="M187.177 202.23H188.919C189.035 202.23 189.13 202.138 189.13 202.026V201.179C189.13 201.067 189.035 200.975 188.919 200.975H187.177C187.06 200.975 186.965 201.067 186.965 201.179V202.026C186.965 202.138 187.06 202.23 187.177 202.23Z" fill="#0E1A32"/>
<path d="M182.848 202.23H184.589C184.706 202.23 184.801 202.138 184.801 202.026V201.179C184.801 201.067 184.706 200.975 184.589 200.975H182.848C182.731 200.975 182.636 201.067 182.636 201.179V202.026C182.636 202.138 182.731 202.23 182.848 202.23Z" fill="#0E1A32"/>
<path d="M178.52 202.23H180.261C180.378 202.23 180.473 202.138 180.473 202.026V201.179C180.473 201.067 180.378 200.975 180.261 200.975H178.52C178.403 200.975 178.308 201.067 178.308 201.179V202.026C178.308 202.138 178.403 202.23 178.52 202.23Z" fill="#0E1A32"/>
<path d="M174.19 202.23H175.932C176.049 202.23 176.144 202.138 176.144 202.026V201.179C176.144 201.067 176.049 200.975 175.932 200.975H174.19C174.074 200.975 173.979 201.067 173.979 201.179V202.026C173.979 202.138 174.074 202.23 174.19 202.23Z" fill="#0E1A32"/>
<path d="M169.862 202.23H171.604C171.721 202.23 171.815 202.138 171.815 202.026V201.179C171.815 201.067 171.721 200.975 171.604 200.975H169.862C169.746 200.975 169.651 201.067 169.651 201.179V202.026C169.651 202.138 169.746 202.23 169.862 202.23Z" fill="#0E1A32"/>
<path d="M165.533 202.23H167.275C167.392 202.23 167.486 202.138 167.486 202.026V201.179C167.486 201.067 167.392 200.975 167.275 200.975H165.533C165.417 200.975 165.322 201.067 165.322 201.179V202.026C165.322 202.138 165.417 202.23 165.533 202.23Z" fill="#0E1A32"/>
<path d="M161.204 202.23H162.946C163.063 202.23 163.157 202.138 163.157 202.026V201.179C163.157 201.067 163.063 200.975 162.946 200.975H161.204C161.087 200.975 160.993 201.067 160.993 201.179V202.026C160.993 202.138 161.087 202.23 161.204 202.23Z" fill="#0E1A32"/>
<path d="M156.876 202.23H158.618C158.734 202.23 158.829 202.138 158.829 202.026V201.179C158.829 201.067 158.734 200.975 158.618 200.975H156.876C156.759 200.975 156.665 201.067 156.665 201.179V202.026C156.665 202.138 156.759 202.23 156.876 202.23Z" fill="#0E1A32"/>
<path d="M152.547 202.23H154.289C154.405 202.23 154.5 202.138 154.5 202.026V201.179C154.5 201.067 154.405 200.975 154.289 200.975H152.547C152.43 200.975 152.336 201.067 152.336 201.179V202.026C152.336 202.138 152.43 202.23 152.547 202.23Z" fill="#0E1A32"/>
<path d="M181.55 204.739H198.442C198.559 204.739 198.653 204.648 198.653 204.535V203.689C198.653 203.576 198.559 203.484 198.442 203.484H181.55C181.433 203.484 181.338 203.576 181.338 203.689V204.535C181.338 204.648 181.433 204.739 181.55 204.739Z" fill="#0E1A32"/>
<path d="M133.625 102.438H244.149C244.263 102.436 244.373 102.39 244.453 102.31C244.534 102.231 244.579 102.124 244.579 102.013C244.579 101.902 244.534 101.796 244.453 101.716C244.373 101.637 244.263 101.591 244.149 101.589H133.625C133.51 101.591 133.401 101.637 133.321 101.716C133.24 101.796 133.195 101.902 133.195 102.013C133.195 102.124 133.24 102.231 133.321 102.31C133.401 102.39 133.51 102.436 133.625 102.438Z" fill="#0E1A32"/>
<path d="M236.625 99.4207C238.047 99.4207 239.2 98.2817 239.2 96.8767C239.2 95.4717 238.047 94.3328 236.625 94.3328C235.202 94.3328 234.049 95.4717 234.049 96.8767C234.049 98.2817 235.202 99.4207 236.625 99.4207Z" fill="#0E1A32"/>
<path d="M227.727 99.4207C229.15 99.4207 230.303 98.2817 230.303 96.8767C230.303 95.4717 229.15 94.3328 227.727 94.3328C226.305 94.3328 225.151 95.4717 225.151 96.8767C225.151 98.2817 226.305 99.4207 227.727 99.4207Z" fill="#0E1A32"/>
<path d="M218.829 99.4207C220.251 99.4207 221.404 98.2817 221.404 96.8767C221.404 95.4717 220.251 94.3328 218.829 94.3328C217.406 94.3328 216.253 95.4717 216.253 96.8767C216.253 98.2817 217.406 99.4207 218.829 99.4207Z" fill="#0E1A32"/>
<path d="M138.512 95.426C138.511 95.4862 138.523 95.5458 138.547 95.6015C138.571 95.6571 138.605 95.7078 138.649 95.7505C138.693 95.7932 138.745 95.8272 138.802 95.8504C138.86 95.8737 138.921 95.8858 138.984 95.8861H145.304C145.428 95.8833 145.547 95.8333 145.635 95.747C145.722 95.6606 145.771 95.5447 145.771 95.424C145.771 95.3032 145.722 95.1873 145.635 95.1009C145.547 95.0146 145.428 94.9646 145.304 94.9618H138.984C138.857 94.9633 138.737 95.013 138.649 95.0999C138.56 95.1869 138.511 95.3041 138.512 95.426Z" fill="#0E1A32"/>
<path d="M138.512 97.1616C138.511 97.2217 138.523 97.2814 138.547 97.337C138.571 97.3927 138.605 97.4433 138.649 97.4861C138.693 97.5288 138.745 97.5627 138.802 97.586C138.86 97.6093 138.921 97.6214 138.984 97.6216H145.304C145.429 97.619 145.548 97.5691 145.635 97.4827C145.722 97.3964 145.771 97.2803 145.771 97.1595C145.771 97.0387 145.722 96.9227 145.635 96.8363C145.548 96.7499 145.429 96.7001 145.304 96.6974H138.984C138.857 96.6989 138.737 96.7485 138.649 96.8355C138.56 96.9225 138.511 97.0397 138.512 97.1616Z" fill="#0E1A32"/>
<path d="M138.512 98.893C138.511 99.0149 138.56 99.1321 138.649 99.2191C138.737 99.3061 138.857 99.3557 138.984 99.3572H145.304C145.428 99.3544 145.547 99.3044 145.635 99.2181C145.722 99.1317 145.771 99.0158 145.771 98.8951C145.771 98.7743 145.722 98.6584 145.635 98.572C145.547 98.4857 145.428 98.4358 145.304 98.433H138.984C138.921 98.4332 138.86 98.4453 138.802 98.4686C138.745 98.4918 138.693 98.5258 138.649 98.5685C138.605 98.6112 138.571 98.6619 138.547 98.7176C138.523 98.7732 138.511 98.8328 138.512 98.893Z" fill="#0E1A32"/>
<path d="M140.465 112.306H138.194C137.505 112.306 136.947 112.845 136.947 113.511C136.947 114.176 137.505 114.715 138.194 114.715H140.465C141.153 114.715 141.712 114.176 141.712 113.511C141.712 112.845 141.153 112.306 140.465 112.306Z" fill="#EDF2F3"/>
<path d="M166.438 112.306H164.167C163.478 112.306 162.92 112.845 162.92 113.511C162.92 114.176 163.478 114.715 164.167 114.715H166.438C167.126 114.715 167.684 114.176 167.684 113.511C167.684 112.845 167.126 112.306 166.438 112.306Z" fill="#EDF2F3"/>
<path d="M173.796 112.306H171.525C170.836 112.306 170.278 112.845 170.278 113.511C170.278 114.176 170.836 114.715 171.525 114.715H173.796C174.484 114.715 175.043 114.176 175.043 113.511C175.043 112.845 174.484 112.306 173.796 112.306Z" fill="#EDF2F3"/>
<path d="M159.373 112.105H145.258C144.57 112.105 144.012 112.645 144.012 113.31C144.012 113.975 144.57 114.514 145.258 114.514H159.373C160.061 114.514 160.619 113.975 160.619 113.31C160.619 112.645 160.061 112.105 159.373 112.105Z" fill="#EDF2F3"/>
<path d="M194.002 112.105H179.888C179.2 112.105 178.642 112.645 178.642 113.31C178.642 113.975 179.2 114.514 179.888 114.514H194.002C194.691 114.514 195.249 113.975 195.249 113.31C195.249 112.645 194.691 112.105 194.002 112.105Z" fill="#EDF2F3"/>
<path d="M147.391 117.743H145.12C144.431 117.743 143.873 118.282 143.873 118.947C143.873 119.612 144.431 120.152 145.12 120.152H147.391C148.079 120.152 148.637 119.612 148.637 118.947C148.637 118.282 148.079 117.743 147.391 117.743Z" fill="#EDF2F3"/>
<path d="M173.363 117.743H171.092C170.404 117.743 169.846 118.282 169.846 118.947C169.846 119.612 170.404 120.152 171.092 120.152H173.363C174.052 120.152 174.61 119.612 174.61 118.947C174.61 118.282 174.052 117.743 173.363 117.743Z" fill="#EDF2F3"/>
<path d="M180.723 117.743H178.452C177.763 117.743 177.205 118.282 177.205 118.947C177.205 119.612 177.763 120.152 178.452 120.152H180.723C181.411 120.152 181.969 119.612 181.969 118.947C181.969 118.282 181.411 117.743 180.723 117.743Z" fill="#EDF2F3"/>
<path d="M166.298 117.542H152.184C151.496 117.542 150.938 118.081 150.938 118.746C150.938 119.412 151.496 119.951 152.184 119.951H166.298C166.987 119.951 167.545 119.412 167.545 118.746C167.545 118.081 166.987 117.542 166.298 117.542Z" fill="#EDF2F3"/>
<path d="M200.929 117.542H186.815C186.127 117.542 185.568 118.081 185.568 118.746C185.568 119.412 186.127 119.951 186.815 119.951H200.929C201.618 119.951 202.176 119.412 202.176 118.746C202.176 118.081 201.618 117.542 200.929 117.542Z" fill="#EDF2F3"/>
<path d="M154.316 123.18H152.045C151.357 123.18 150.799 123.719 150.799 124.384C150.799 125.049 151.357 125.588 152.045 125.588H154.316C155.005 125.588 155.563 125.049 155.563 124.384C155.563 123.719 155.005 123.18 154.316 123.18Z" fill="#EDF2F3"/>
<path d="M180.289 123.18H178.018C177.33 123.18 176.771 123.719 176.771 124.384C176.771 125.049 177.33 125.588 178.018 125.588H180.289C180.978 125.588 181.536 125.049 181.536 124.384C181.536 123.719 180.978 123.18 180.289 123.18Z" fill="#EDF2F3"/>
<path d="M187.648 123.18H185.378C184.689 123.18 184.131 123.719 184.131 124.384C184.131 125.049 184.689 125.588 185.378 125.588H187.648C188.337 125.588 188.895 125.049 188.895 124.384C188.895 123.719 188.337 123.18 187.648 123.18Z" fill="#EDF2F3"/>
<path d="M173.225 122.979H159.111C158.422 122.979 157.864 123.518 157.864 124.183C157.864 124.848 158.422 125.388 159.111 125.388H173.225C173.914 125.388 174.472 124.848 174.472 124.183C174.472 123.518 173.914 122.979 173.225 122.979Z" fill="#EDF2F3"/>
<path d="M207.855 122.979H193.741C193.052 122.979 192.494 123.518 192.494 124.183C192.494 124.848 193.052 125.388 193.741 125.388H207.855C208.544 125.388 209.102 124.848 209.102 124.183C209.102 123.518 208.544 122.979 207.855 122.979Z" fill="#EDF2F3"/>
<path d="M161.243 128.616H158.972C158.284 128.616 157.726 129.155 157.726 129.821C157.726 130.486 158.284 131.025 158.972 131.025H161.243C161.932 131.025 162.49 130.486 162.49 129.821C162.49 129.155 161.932 128.616 161.243 128.616Z" fill="#EDF2F3"/>
<path d="M187.216 128.616H184.945C184.256 128.616 183.698 129.155 183.698 129.821C183.698 130.486 184.256 131.025 184.945 131.025H187.216C187.904 131.025 188.462 130.486 188.462 129.821C188.462 129.155 187.904 128.616 187.216 128.616Z" fill="#EDF2F3"/>
<path d="M194.574 128.616H192.303C191.615 128.616 191.057 129.155 191.057 129.821C191.057 130.486 191.615 131.025 192.303 131.025H194.574C195.263 131.025 195.821 130.486 195.821 129.821C195.821 129.155 195.263 128.616 194.574 128.616Z" fill="#EDF2F3"/>
<path d="M180.151 128.415H166.037C165.348 128.415 164.79 128.955 164.79 129.62C164.79 130.285 165.348 130.824 166.037 130.824H180.151C180.839 130.824 181.398 130.285 181.398 129.62C181.398 128.955 180.839 128.415 180.151 128.415Z" fill="#EDF2F3"/>
<path d="M166.438 150.235H164.167C163.478 150.235 162.92 150.774 162.92 151.439C162.92 152.104 163.478 152.644 164.167 152.644H166.438C167.126 152.644 167.684 152.104 167.684 151.439C167.684 150.774 167.126 150.235 166.438 150.235Z" fill="#EDF2F3"/>
<path d="M173.796 150.235H171.525C170.836 150.235 170.278 150.774 170.278 151.439C170.278 152.104 170.836 152.644 171.525 152.644H173.796C174.484 152.644 175.043 152.104 175.043 151.439C175.043 150.774 174.484 150.235 173.796 150.235Z" fill="#EDF2F3"/>
<path d="M194.002 150.436H179.888C179.2 150.436 178.642 150.975 178.642 151.64C178.642 152.305 179.2 152.844 179.888 152.844H194.002C194.691 152.844 195.249 152.305 195.249 151.64C195.249 150.975 194.691 150.436 194.002 150.436Z" fill="#EDF2F3"/>
<path d="M140.465 150.235H138.194C137.505 150.235 136.947 150.774 136.947 151.439C136.947 152.104 137.505 152.644 138.194 152.644H140.465C141.153 152.644 141.712 152.104 141.712 151.439C141.712 150.774 141.153 150.235 140.465 150.235Z" fill="#EDF2F3"/>
<path d="M159.373 150.436H145.258C144.57 150.436 144.012 150.975 144.012 151.64C144.012 152.305 144.57 152.844 145.258 152.844H159.373C160.061 152.844 160.619 152.305 160.619 151.64C160.619 150.975 160.061 150.436 159.373 150.436Z" fill="#EDF2F3"/>
<path d="M147.391 144.798H145.12C144.431 144.798 143.873 145.337 143.873 146.002C143.873 146.668 144.431 147.207 145.12 147.207H147.391C148.079 147.207 148.637 146.668 148.637 146.002C148.637 145.337 148.079 144.798 147.391 144.798Z" fill="#EDF2F3"/>
<path d="M173.363 144.798H171.092C170.404 144.798 169.846 145.337 169.846 146.002C169.846 146.668 170.404 147.207 171.092 147.207H173.363C174.052 147.207 174.61 146.668 174.61 146.002C174.61 145.337 174.052 144.798 173.363 144.798Z" fill="#EDF2F3"/>
<path d="M180.723 144.798H178.452C177.763 144.798 177.205 145.337 177.205 146.002C177.205 146.668 177.763 147.207 178.452 147.207H180.723C181.411 147.207 181.969 146.668 181.969 146.002C181.969 145.337 181.411 144.798 180.723 144.798Z" fill="#EDF2F3"/>
<path d="M166.298 144.999H152.184C151.496 144.999 150.938 145.538 150.938 146.203C150.938 146.868 151.496 147.408 152.184 147.408H166.298C166.987 147.408 167.545 146.868 167.545 146.203C167.545 145.538 166.987 144.999 166.298 144.999Z" fill="#EDF2F3"/>
<path d="M154.316 139.361H152.045C151.357 139.361 150.799 139.901 150.799 140.566C150.799 141.231 151.357 141.77 152.045 141.77H154.316C155.005 141.77 155.563 141.231 155.563 140.566C155.563 139.901 155.005 139.361 154.316 139.361Z" fill="#EDF2F3"/>
<path d="M180.289 139.361H178.018C177.33 139.361 176.771 139.901 176.771 140.566C176.771 141.231 177.33 141.77 178.018 141.77H180.289C180.978 141.77 181.536 141.231 181.536 140.566C181.536 139.901 180.978 139.361 180.289 139.361Z" fill="#EDF2F3"/>
<path d="M187.648 139.361H185.378C184.689 139.361 184.131 139.901 184.131 140.566C184.131 141.231 184.689 141.77 185.378 141.77H187.648C188.337 141.77 188.895 141.231 188.895 140.566C188.895 139.901 188.337 139.361 187.648 139.361Z" fill="#EDF2F3"/>
<path d="M173.225 139.562H159.111C158.422 139.562 157.864 140.101 157.864 140.767C157.864 141.432 158.422 141.971 159.111 141.971H173.225C173.914 141.971 174.472 141.432 174.472 140.767C174.472 140.101 173.914 139.562 173.225 139.562Z" fill="#EDF2F3"/>
<path d="M161.243 133.925H158.972C158.284 133.925 157.726 134.464 157.726 135.129C157.726 135.794 158.284 136.334 158.972 136.334H161.243C161.932 136.334 162.49 135.794 162.49 135.129C162.49 134.464 161.932 133.925 161.243 133.925Z" fill="#EDF2F3"/>
<path d="M187.216 133.925H184.945C184.256 133.925 183.698 134.464 183.698 135.129C183.698 135.794 184.256 136.334 184.945 136.334H187.216C187.904 136.334 188.462 135.794 188.462 135.129C188.462 134.464 187.904 133.925 187.216 133.925Z" fill="#EDF2F3"/>
<path d="M194.574 133.925H192.303C191.615 133.925 191.057 134.464 191.057 135.129C191.057 135.794 191.615 136.334 192.303 136.334H194.574C195.263 136.334 195.821 135.794 195.821 135.129C195.821 134.464 195.263 133.925 194.574 133.925Z" fill="#EDF2F3"/>
<path d="M180.151 134.125H166.037C165.348 134.125 164.79 134.665 164.79 135.33C164.79 135.995 165.348 136.534 166.037 136.534H180.151C180.839 136.534 181.398 135.995 181.398 135.33C181.398 134.665 180.839 134.125 180.151 134.125Z" fill="#EDF2F3"/>
<path d="M151.468 228.32C151.373 228.366 151.278 228.412 151.183 228.454C150.581 228.742 149.975 229.027 149.365 229.307C147.538 230.148 145.688 230.946 143.815 231.703C138.887 233.695 133.831 235.375 128.677 236.734C127.812 231.519 126.972 219.22 126.167 210.174C126.015 208.472 125.864 206.887 125.712 205.486C125.568 203.647 125.295 201.819 124.894 200.016C124.855 199.875 124.798 199.738 124.725 199.61C124.808 200.334 124.894 202.492 124.976 205.486C125.02 206.887 125.059 208.472 125.102 210.174C125.305 218.881 125.517 230.729 125.73 237.475C125.128 237.617 124.522 237.759 123.916 237.893C123.535 237.981 123.15 238.064 122.764 238.144C122.297 238.244 121.829 238.344 121.362 238.436C120.873 238.537 120.384 238.633 119.894 238.725C111.901 240.242 103.774 241.004 95.6274 241C95.0863 241 94.5495 240.996 94.0084 240.992C93.8439 240.992 93.6794 240.987 93.5106 240.983C93.0344 240.975 92.541 240.967 92.0388 240.954C82.4121 240.697 72.8484 239.365 63.5383 236.985L63.9149 210.174L63.9798 205.486L64.0058 203.709C63.7914 204.28 63.6631 204.879 63.6248 205.486C63.4733 206.628 63.3175 208.246 63.1617 210.174C62.5686 217.601 61.9583 229.583 61.3263 236.4C53.8419 234.342 48.3703 232.464 41.5309 229.161C41.2668 229.035 40.9984 228.906 40.7344 228.776C40.782 228.454 40.8339 228.132 40.8816 227.801C41.6564 222.599 40.743 215.828 41.6001 210.174C42.2538 205.812 42.9291 201.622 43.6087 198.067C44.4311 193.789 45.2666 190.426 46.0934 188.791C47.0457 186.905 47.998 185.048 48.9201 183.271C49.3183 182.506 49.7094 181.754 50.0932 181.017C50.3009 180.62 50.5087 180.226 50.7122 179.842C51.6385 178.089 52.5129 176.471 53.3138 175.037C53.8765 174.029 54.3959 173.117 54.8721 172.318C55.4305 171.377 55.924 170.599 56.3309 170.01C59.3364 165.608 63.8083 162.331 69.0055 160.721L69.1354 160.688L69.2609 160.738L69.4037 160.801L77.6543 157.886L81.3381 149.317L100.259 148.192L103.315 150.438L104.878 151.588L106.544 152.813L109.609 155.067L110.479 155.326L111.774 155.711L120.626 158.338L120.717 158.3L120.847 158.333C125.576 159.796 129.716 162.647 132.69 166.488C132.985 166.856 133.257 167.237 133.521 167.622C134.24 168.65 135.21 170.277 136.352 172.318C136.824 173.159 137.322 174.07 137.846 175.037C138.162 175.618 140.889 183.84 143.542 192.237C146.023 200.1 148.438 208.117 148.754 210.174C148.81 210.555 148.871 210.939 148.927 211.32C149.287 213.7 149.642 216.096 149.984 218.434C150.49 221.901 150.984 225.246 151.455 228.236C151.46 228.266 151.464 228.291 151.468 228.32Z" fill="#0E1A32"/>
<path opacity="0.2" d="M131.417 198.048L127.739 184.334L124.491 196.167L131.417 198.048Z" fill="#1F1F1F"/>
<path d="M6.85256 197.889C7.04327 198.425 7.40504 198.889 7.88592 199.215C8.3668 199.54 8.94205 199.71 9.52907 199.7L20.9967 199.415C21.5881 199.404 22.1598 199.208 22.6264 198.857C23.0931 198.506 23.4296 198.018 23.5857 197.467L25.2085 180.703C25.7843 180.955 26.411 181.079 27.043 181.067C28.1518 181.04 29.2042 180.589 29.9686 179.812C30.7329 179.036 31.1467 177.997 31.1189 176.926C31.0911 175.855 30.6239 174.838 29.8201 174.1C29.0164 173.361 27.9419 172.962 26.8331 172.988C26.5805 172.988 26.3286 173.013 26.0816 173.064C25.8129 172.783 25.4864 172.56 25.123 172.408C24.7596 172.257 24.3674 172.181 23.9717 172.184L6.33178 172.625C6.18545 172.63 6.03986 172.647 5.89666 172.677C5.50981 172.746 5.14291 172.895 4.82064 173.113C4.49836 173.332 4.22819 173.614 4.02832 173.941C3.82845 174.269 3.70352 174.634 3.66192 175.012C3.62032 175.39 3.66304 175.772 3.78718 176.133L6.85256 197.889ZM25.5413 179.564L26.696 175.569C26.8274 175.108 26.8305 174.621 26.7049 174.158C26.7609 174.158 26.8103 174.132 26.8664 174.132C27.6581 174.116 28.4241 174.404 28.9963 174.933C29.5685 175.462 29.9002 176.189 29.9188 176.954C29.9373 177.719 29.6412 178.46 29.0952 179.014C28.5493 179.568 27.7981 179.89 27.0064 179.91C26.4945 179.926 25.988 179.806 25.5413 179.564Z" fill="#2F2E41"/>
<path d="M5.89648 172.677C6.2723 174.753 10.4976 176.212 15.5781 175.959C20.25 175.751 24.07 174.166 24.7699 172.287C24.5109 172.213 24.2415 172.179 23.9715 172.184L6.33161 172.625C6.18528 172.63 6.03969 172.647 5.89648 172.677Z" fill="#0E1A32"/>
<path d="M16.509 188.676C16.5322 188.671 16.5543 188.661 16.5743 188.649L19.0647 187.074C19.0948 187.055 19.1195 187.029 19.1367 186.998C19.1538 186.968 19.1628 186.934 19.1628 186.899C19.1628 186.864 19.1538 186.83 19.1367 186.8C19.1196 186.769 19.0949 186.743 19.0648 186.724L16.4763 185.086C16.4526 185.071 16.4259 185.06 16.398 185.055C16.37 185.05 16.3412 185.05 16.3133 185.056C16.2854 185.061 16.2589 185.072 16.2354 185.088C16.2118 185.103 16.1916 185.123 16.176 185.146C16.1604 185.169 16.1497 185.195 16.1444 185.222C16.1391 185.249 16.1394 185.277 16.1453 185.303C16.1511 185.33 16.1624 185.356 16.1785 185.379C16.1946 185.401 16.2152 185.421 16.2391 185.436L18.5511 186.899L16.3374 188.299C16.2945 188.326 16.263 188.367 16.2484 188.414C16.2338 188.462 16.2371 188.512 16.2576 188.558C16.2782 188.603 16.3148 188.64 16.3608 188.662C16.4068 188.683 16.4593 188.689 16.5089 188.676H16.509Z" fill="#1BA168"/>
<path d="M12.5755 188.852C12.6173 188.841 12.6549 188.819 12.6837 188.788C12.7124 188.757 12.7309 188.719 12.7368 188.677C12.7426 188.636 12.7356 188.594 12.7166 188.557C12.6976 188.519 12.6674 188.488 12.63 188.468L10.3345 187.196L12.5532 185.604C12.576 185.587 12.5953 185.567 12.6098 185.543C12.6244 185.52 12.634 185.494 12.6382 185.467C12.6423 185.439 12.6409 185.412 12.634 185.385C12.627 185.359 12.6148 185.334 12.5978 185.312C12.5809 185.289 12.5596 185.271 12.5352 185.257C12.5109 185.243 12.4839 185.233 12.4558 185.229C12.4277 185.225 12.399 185.227 12.3715 185.234C12.3439 185.24 12.318 185.252 12.2952 185.268L9.81111 187.051C9.78225 187.072 9.75917 187.099 9.74396 187.131C9.72875 187.162 9.72189 187.197 9.72401 187.231C9.72612 187.266 9.73714 187.299 9.75606 187.329C9.77499 187.358 9.80122 187.383 9.8324 187.4L12.4146 188.83C12.4633 188.857 12.521 188.865 12.5755 188.852Z" fill="#1BA168"/>
<path d="M16.2614 190.056C16.2823 190.051 16.3023 190.043 16.3207 190.032C16.345 190.018 16.3662 189.999 16.383 189.977C16.3998 189.955 16.4119 189.93 16.4186 189.903C16.4253 189.876 16.4266 189.849 16.4222 189.822C16.4178 189.794 16.408 189.768 16.3932 189.745L12.8629 184.137C12.8329 184.09 12.7848 184.057 12.7291 184.044C12.6734 184.031 12.6147 184.04 12.5658 184.068C12.5169 184.097 12.4818 184.144 12.4681 184.197C12.4545 184.251 12.4635 184.308 12.493 184.355L16.0233 189.963C16.0474 190.001 16.0835 190.03 16.1264 190.047C16.1692 190.064 16.2165 190.067 16.2614 190.056Z" fill="#1BA168"/>
<path d="M339.872 228.775C339.608 228.905 339.339 229.034 339.075 229.16C332.236 232.464 326.764 234.341 319.28 236.399C318.648 229.582 318.037 217.601 317.444 210.173C317.288 208.245 317.133 206.627 316.981 205.485C316.943 204.878 316.815 204.28 316.6 203.708L316.626 205.485L316.691 210.173L317.068 236.984C307.758 239.364 298.194 240.696 288.567 240.953C288.065 240.966 287.572 240.974 287.095 240.982C286.927 240.987 286.762 240.991 286.598 240.991C286.057 240.995 285.52 240.999 284.979 240.999C274.834 241.006 264.726 239.823 254.876 237.474C255.089 230.728 255.301 218.88 255.504 210.173C255.547 208.471 255.586 206.886 255.63 205.485C255.712 202.491 255.798 200.333 255.881 199.609C255.808 199.738 255.751 199.874 255.712 200.015C255.311 201.818 255.038 203.646 254.894 205.485C254.742 206.886 254.591 208.471 254.439 210.173C253.634 219.219 252.794 231.518 251.929 236.733C246.775 235.374 241.719 233.694 236.791 231.702C234.194 230.657 231.643 229.529 229.138 228.319C229.614 225.308 230.112 221.933 230.622 218.433C231.021 215.719 231.432 212.929 231.852 210.173C232.501 205.916 254.56 159.943 259.759 158.332L259.889 158.299L259.98 158.337L268.832 155.71L270.127 155.326L270.997 155.066L274.062 152.812L275.728 151.587L277.291 150.437L280.347 148.191L299.268 149.316L302.952 157.885L311.202 160.8L311.345 160.737L311.471 160.687L311.601 160.72C316.798 162.33 321.27 165.607 324.275 170.009C324.682 170.598 325.175 171.376 325.734 172.317C326.21 173.116 326.73 174.028 327.292 175.036C328.093 176.47 328.967 178.088 329.894 179.841C330.097 180.226 330.305 180.619 330.513 181.016C330.898 181.752 331.289 182.503 331.686 183.27C332.608 185.047 333.56 186.904 334.513 188.79C335.339 190.426 336.175 193.788 336.997 198.066C337.677 201.621 338.352 205.811 339.006 210.173C339.863 215.827 338.95 222.598 339.724 227.801C339.772 228.131 339.824 228.453 339.872 228.775Z" fill="#0E1A32"/>
<path d="M284.38 145.115C296.533 145.115 306.386 135.596 306.386 123.855C306.386 112.113 296.533 102.595 284.38 102.595C272.226 102.595 262.374 112.113 262.374 123.855C262.374 135.596 272.226 145.115 284.38 145.115Z" fill="#A0616A"/>
<path opacity="0.2" d="M249.188 198.048L252.867 184.334L256.114 196.167L249.188 198.048Z" fill="#1F1F1F"/>
<path d="M347.067 189.112C345.751 206.627 347.114 214.339 339.851 228.779C333.242 231.904 326.358 234.454 319.28 236.399C318.544 236.6 317.807 236.795 317.068 236.984C307.758 239.364 298.195 240.696 288.568 240.953C288.066 240.966 287.572 240.974 287.096 240.982C286.927 240.987 286.763 240.991 286.598 240.991C286.057 240.995 285.52 240.999 284.979 240.999C274.834 241.006 264.726 239.823 254.877 237.474C253.89 237.239 252.907 236.993 251.929 236.733C246.776 235.374 241.72 233.694 236.792 231.702C234.194 230.657 231.643 229.529 229.138 228.319C228.571 228.043 228.004 227.767 227.446 227.483C224.576 222.606 222.944 216.676 222.909 209.55C224.896 197.272 342.677 178.523 347.067 189.112Z" fill="#2F2E41"/>
<path opacity="0.2" d="M347.063 192.112C347.13 191.028 347.206 189.907 347.293 188.741C342.904 178.152 225.123 196.9 223.136 209.179C223.141 210.305 223.191 211.397 223.275 212.464C228.086 200.345 339.98 182.526 347.063 192.112Z" fill="#1F1F1F"/>
<path d="M219.98 189.938L229.648 185.268L221.591 164.253L219.468 153.655C219.192 152.278 218.547 150.995 217.597 149.935C216.648 148.874 215.426 148.073 214.056 147.611C212.685 147.149 211.213 147.043 209.786 147.304C208.36 147.564 207.029 148.181 205.927 149.094C204.293 150.446 203.268 152.359 203.067 154.428C202.865 156.497 203.504 158.561 204.848 160.184L212.729 169.702L219.98 189.938Z" fill="#A0616A"/>
<path d="M229.647 181.377L216.757 187.603L226.539 217.216C227.242 219.343 228.501 221.258 230.195 222.776C231.889 224.293 233.96 225.363 236.208 225.88C238.979 226.517 241.889 226.285 244.515 225.218C247.14 224.15 249.346 222.303 250.812 219.943L276.752 176.987C278.59 174.027 279.158 170.49 278.333 167.131C277.508 163.773 275.357 160.859 272.338 159.012C270.715 158.018 268.893 157.367 266.992 157.098C265.09 156.83 263.152 156.952 261.302 157.455C259.453 157.959 257.733 158.833 256.257 160.021C254.78 161.209 253.579 162.684 252.731 164.35L236.898 196.944L229.647 181.377Z" fill="#0E1A32"/>
<path d="M90.6905 143.648C104.063 143.648 114.903 133.175 114.903 120.256C114.903 107.336 104.063 96.8633 90.6905 96.8633C77.318 96.8633 66.4775 107.336 66.4775 120.256C66.4775 133.175 77.318 143.648 90.6905 143.648Z" fill="#A0616A"/>
<path d="M66.7685 104.136C68.7372 101.572 71.5669 99.7495 73.7312 97.3377C74.9188 96.0144 75.9049 94.515 77.24 93.3304C79.7205 91.1293 83.1895 90.2274 86.5556 90.1152C90.2445 90.0237 93.904 90.7724 97.2378 92.3009C100.572 93.8295 103.486 96.0948 105.745 98.9136C107.505 97.917 109.264 96.9203 111.024 95.9237C111.719 97.6913 112.414 99.4588 113.109 101.226C113.68 100.747 114.407 100.479 115.163 100.469C115.919 100.458 116.654 100.707 117.238 101.17C117.822 101.634 118.218 102.282 118.354 103C118.491 103.718 118.36 104.46 117.985 105.094C118.404 103.844 120.322 103.579 121.38 104.405C122.437 105.23 122.721 106.7 122.548 108.003C122.331 109.433 121.677 110.767 120.669 111.835C119.662 112.902 118.346 113.654 116.893 113.994C114.597 114.488 111.924 113.969 110.087 115.388C108.613 116.525 108.169 118.596 106.665 119.696C104.812 121.051 102.194 120.424 99.8908 120.724C95.8615 121.248 92.6711 125.229 93.1553 129.129C92.7908 127.898 92.4077 126.632 91.5803 125.632C90.7528 124.633 89.3593 123.957 88.0903 124.324C85.9926 124.932 85.6495 127.694 86.1578 129.752C87.5061 135.209 92.6161 144.031 92.6161 144.031C85.9811 146.56 78.0763 144.169 72.9569 139.371C67.8376 134.572 65.1714 127.778 64.01 120.98C63.0251 115.214 63.1647 108.828 66.7685 104.136Z" fill="#2F2E41"/>
<path d="M311.957 135.575C316.563 125.371 313.954 115.982 308.338 111.001V110.997C306.13 106.217 303.195 102.528 299.836 101.662C298.213 100.655 296.637 99.471 294.889 98.8688C294.074 98.5742 293.206 98.442 292.337 98.48C291.468 98.5181 290.616 98.7258 289.833 99.0905L288.941 98.8604C288.183 96.9911 287.296 96.9534 286.309 98.183C282.508 96.4725 279.084 95.7072 276.037 95.7072C266.098 95.7072 260.219 103.837 258.661 113.665L266.968 115.802L269.855 111.356L268.522 116.203L273.106 117.379C280.084 126.157 271.734 146.406 261.15 157.673C263.67 156.999 266.179 156.431 268.678 155.966L277.76 143.102L272.132 154.812C275.054 154.398 278.781 154.795 282.855 155.594C284.227 153.863 284.95 151.554 284.24 149.497C285.4 151.667 286.201 154 286.612 156.41C295.209 158.438 306.935 159.479 313.255 160.249C318.362 158.638 318.376 140.451 311.957 135.575Z" fill="#31276F"/>
<path d="M314.954 100.867C318.328 108.166 311.52 111.306 305.283 111.217C299.647 111.137 294.858 107.312 294.57 101.874C294.432 99.2622 295.373 96.7047 297.187 94.7637C299 92.8228 301.538 91.6573 304.241 91.5238C309.87 91.2459 312.656 95.8952 314.954 100.867Z" fill="#31276F"/>
<path d="M158.425 219.687L152.867 210.731L171.347 197.186L179.031 189.348C180.029 188.33 181.286 187.583 182.677 187.181C184.068 186.78 185.544 186.738 186.957 187.059C188.369 187.381 189.67 188.056 190.729 189.015C191.787 189.975 192.567 191.186 192.989 192.528C193.614 194.517 193.416 196.662 192.435 198.512C191.455 200.362 189.768 201.771 187.733 202.442L175.793 206.38L158.425 219.687Z" fill="#A0616A"/>
<path d="M162.442 219.391L153.789 226.359L151.456 228.236L151.183 228.454C150.581 228.742 149.975 229.027 149.365 229.307C147.538 230.148 145.688 230.946 143.815 231.703C138.887 233.695 133.831 235.375 128.678 236.734C127.699 236.994 126.717 237.24 125.73 237.475C125.128 237.617 124.522 237.759 123.916 237.893C123.535 237.981 123.15 238.064 122.765 238.144C122.297 238.244 121.83 238.344 121.362 238.436C120.873 238.537 120.384 238.633 119.895 238.725C118.578 237.515 117.531 236.059 116.815 234.446C116.099 232.833 115.73 231.096 115.73 229.34C115.73 229.228 115.73 229.11 115.735 228.993L117.124 194.563L117.739 179.302C117.834 175.851 119.322 172.573 121.885 170.167C124.448 167.762 127.884 166.421 131.457 166.43C131.872 166.43 132.284 166.451 132.691 166.488C132.985 166.856 133.258 167.237 133.522 167.622C134.24 168.651 135.21 170.277 136.353 172.318C136.825 173.159 137.322 174.07 137.846 175.037C138.162 175.618 140.889 183.84 143.543 192.237L142.374 201.007L140.262 216.815L148.928 211.32L155.031 207.447L155.754 208.614L157.637 211.65L161.273 217.505L162.442 219.391Z" fill="#0E1A32"/>
<path d="M157.698 209.551C157.693 210.262 157.676 210.96 157.637 211.65C157.547 213.554 157.318 215.449 156.953 217.321C156.355 220.466 155.29 223.51 153.789 226.359C153.59 226.739 153.377 227.116 153.161 227.484C152.603 227.768 152.035 228.044 151.468 228.32C151.373 228.366 151.278 228.412 151.183 228.454C148.772 229.612 146.316 230.695 143.815 231.703C138.887 233.695 133.831 235.375 128.678 236.734C127.699 236.994 126.717 237.24 125.73 237.475C123.803 237.935 121.858 238.351 119.894 238.725C111.901 240.242 103.774 241.004 95.6274 241C95.0863 241 94.5496 240.996 94.0085 240.992C93.844 240.992 93.6795 240.987 93.5107 240.983C93.0345 240.975 92.541 240.967 92.0389 240.954C82.4121 240.697 72.8484 239.365 63.5383 236.985C62.7981 236.797 62.0608 236.602 61.3263 236.4C54.249 234.455 47.365 231.905 40.7561 228.78C33.4924 214.339 34.856 206.628 33.54 189.113C36.2412 182.593 81.9399 187.198 117.124 194.563C126.673 196.562 135.443 198.765 142.374 201.007C149.533 203.32 154.724 205.67 156.758 207.878C157.234 208.335 157.56 208.917 157.698 209.551Z" fill="#2F2E41"/>
<path opacity="0.2" d="M33.5425 192.112C33.4753 191.028 33.4001 189.907 33.3125 188.741C37.7019 178.152 155.483 196.9 157.47 209.179C157.464 210.305 157.415 211.397 157.331 212.464C152.519 200.345 40.6255 182.526 33.5425 192.112Z" fill="#1F1F1F"/>
</g>
<defs>
<clipPath id="clip0_243_1588">
<rect width="381" height="241" fill="white"/>
</clipPath>
</defs>
</svg>
