<svg width="399" height="226" viewBox="0 0 399 226" fill="none" xmlns="http://www.w3.org/2000/svg">
<g clip-path="url(#clip0_125_216)">
<path d="M20.2758 208.349C20.4421 214.084 21.4821 219.769 23.3651 225.236C23.4069 225.362 23.4532 225.487 23.4983 225.614H35.0262C35.0141 225.501 35.0016 225.374 34.9894 225.236C34.2209 217.073 38.6119 167.982 43.9106 159.486C43.4464 160.175 19.3819 182.412 20.2758 208.349Z" fill="#EDF2F3"/>
<path d="M21.1407 225.236C21.2371 225.362 21.3373 225.489 21.44 225.614H30.0885C30.023 225.506 29.947 225.379 29.8589 225.236C28.4303 222.854 24.2016 215.732 20.2765 208.349C16.0599 200.415 12.1882 192.181 12.5143 189.2C12.4133 189.872 9.49425 210.364 21.1407 225.236Z" fill="#EDF2F3"/>
<path d="M272.709 46.5024C273.039 47.2562 273.543 47.9341 274.188 48.4883C274.832 49.0424 275.6 49.4593 276.437 49.7096C277.275 49.9599 278.161 50.0376 279.035 49.9371C279.908 49.8366 280.747 49.5603 281.493 49.1279L298.184 61.496L299.217 51.2688L283.209 41.0918C282.339 39.9831 281.06 39.2075 279.613 38.9121C278.166 38.6166 276.651 38.8218 275.357 39.4887C274.063 40.1556 273.078 41.238 272.59 42.5306C272.102 43.8233 272.144 45.2365 272.709 46.5024V46.5024Z" fill="#9F616A"/>
<path d="M298.556 50.3085L292.327 46.2424L285.261 53.7841L293.48 58.2841L298.556 50.3085Z" fill="#FFCD2C"/>
<path d="M297.192 47.5509L318.186 55.0132L338.396 42.7884C340.484 41.5249 342.999 41.0069 345.471 41.3309C347.943 41.6549 350.202 42.7989 351.828 44.5493C353.453 46.2996 354.334 48.5367 354.305 50.8428C354.276 53.1489 353.339 55.3664 351.67 57.0812L351.489 57.2667L320.406 72.6618L286.454 58.3332L297.192 47.5509Z" fill="#0E1A32"/>
<path d="M291.273 224.843H72.5137L80.4458 81.7611H114.679L146.247 102.201H299.206L291.273 224.843Z" fill="#EDF2F3"/>
<path d="M237.723 181.21L111.282 133.106C110.84 132.938 110.489 132.614 110.305 132.206C110.121 131.798 110.12 131.34 110.301 130.931L167.594 2.41511C167.776 2.00676 168.127 1.68201 168.568 1.5121C169.01 1.34218 169.506 1.34098 169.949 1.50877L296.389 49.6121C296.831 49.7808 297.183 50.1046 297.366 50.5125C297.55 50.9203 297.552 51.3789 297.37 51.7877L240.078 180.303C239.895 180.712 239.544 181.037 239.103 181.207C238.661 181.376 238.165 181.378 237.723 181.21V181.21Z" fill="#F8F8F8"/>
<path d="M237.723 181.21L111.282 133.106C110.84 132.938 110.489 132.614 110.305 132.206C110.121 131.798 110.12 131.34 110.301 130.931L167.594 2.41511C167.776 2.00676 168.127 1.68201 168.568 1.5121C169.01 1.34218 169.506 1.34098 169.949 1.50877L296.389 49.6121C296.831 49.7808 297.183 50.1046 297.366 50.5125C297.55 50.9203 297.552 51.3789 297.37 51.7877L240.078 180.303C239.895 180.712 239.544 181.037 239.103 181.207C238.661 181.376 238.165 181.378 237.723 181.21V181.21ZM169.674 2.12515C169.409 2.02447 169.111 2.02518 168.846 2.12713C168.581 2.22908 168.371 2.42394 168.261 2.66896L110.969 131.185C110.86 131.43 110.86 131.705 110.971 131.95C111.081 132.195 111.292 132.389 111.557 132.49L237.997 180.593C238.263 180.694 238.561 180.693 238.826 180.591C239.09 180.49 239.301 180.295 239.41 180.05L296.703 51.5338C296.812 51.2886 296.811 51.0134 296.701 50.7687C296.59 50.524 296.379 50.3297 296.114 50.2285L169.674 2.12515Z" fill="#0E1A32"/>
<path d="M205.385 65.126L174.026 53.1953C173.584 53.0266 173.232 52.7028 173.048 52.2949C172.864 51.8871 172.863 51.4285 173.044 51.0197L185.959 22.0498C186.142 21.6414 186.492 21.3167 186.934 21.1467C187.375 20.9768 187.872 20.9756 188.314 21.1434L219.674 33.0741C220.116 33.2428 220.468 33.5666 220.652 33.9744C220.836 34.3823 220.837 34.8409 220.655 35.2496L207.74 64.2196C207.558 64.628 207.207 64.9527 206.766 65.1226C206.324 65.2925 205.828 65.2937 205.385 65.126V65.126ZM188.04 21.7598C187.774 21.6591 187.476 21.6598 187.211 21.7618C186.946 21.8637 186.736 22.0586 186.627 22.3036L173.712 51.2736C173.603 51.5188 173.603 51.794 173.714 52.0387C173.824 52.2834 174.035 52.4777 174.3 52.5789L205.66 64.5096C205.926 64.6103 206.224 64.6096 206.488 64.5076C206.753 64.4057 206.964 64.2108 207.073 63.9658L219.988 34.9958C220.097 34.7505 220.096 34.4754 219.986 34.2307C219.876 33.9859 219.665 33.7917 219.399 33.6904L188.04 21.7598Z" fill="#F2F2F2"/>
<path d="M194.798 65.2433L163.438 53.3127C163.04 53.1608 162.724 52.8694 162.558 52.5023C162.393 52.1352 162.391 51.7225 162.555 51.3546L175.47 22.3846C175.634 22.0171 175.95 21.7248 176.347 21.5719C176.744 21.419 177.191 21.4179 177.589 21.5689L208.949 33.4996C209.347 33.6514 209.663 33.9428 209.829 34.3099C209.994 34.677 209.996 35.0897 209.832 35.4576L196.917 64.4276C196.753 64.7951 196.437 65.0874 196.04 65.2403C195.643 65.3932 195.196 65.3943 194.798 65.2433V65.2433Z" fill="#FFCD2C"/>
<path d="M255.201 104.805L157.118 67.4895C156.921 67.4145 156.742 67.3043 156.591 67.1654C156.44 67.0264 156.32 66.8613 156.238 66.6794C156.156 66.4976 156.113 66.3027 156.113 66.1057C156.112 65.9087 156.154 65.7136 156.235 65.5315C156.316 65.3494 156.436 65.1838 156.586 65.0442C156.736 64.9047 156.915 64.7939 157.112 64.7181C157.309 64.6424 157.52 64.6032 157.733 64.6028C157.946 64.6024 158.158 64.6408 158.355 64.7158L256.438 102.031C256.836 102.182 257.152 102.474 257.318 102.841C257.484 103.208 257.485 103.621 257.321 103.989C257.157 104.357 256.841 104.649 256.444 104.802C256.046 104.955 255.599 104.956 255.201 104.804V104.805Z" fill="#C4C4C4"/>
<path d="M227.255 105.347L152.859 77.0435C152.662 76.9684 152.482 76.8583 152.331 76.7193C152.18 76.5803 152.06 76.4152 151.978 76.2334C151.896 76.0516 151.854 75.8566 151.854 75.6597C151.853 75.4627 151.895 75.2676 151.976 75.0855C152.057 74.9033 152.176 74.7378 152.327 74.5982C152.477 74.4586 152.656 74.3478 152.853 74.2721C153.05 74.1963 153.261 74.1571 153.474 74.1567C153.687 74.1563 153.898 74.1947 154.095 74.2697L228.492 102.573C228.89 102.725 229.206 103.016 229.372 103.383C229.538 103.751 229.539 104.163 229.375 104.531C229.211 104.899 228.895 105.192 228.498 105.345C228.1 105.498 227.653 105.498 227.255 105.347V105.347Z" fill="#C4C4C4"/>
<path d="M270.53 69.5438L227.16 53.0439C226.963 52.9689 226.784 52.8588 226.633 52.7198C226.482 52.5808 226.362 52.4157 226.28 52.2339C226.198 52.052 226.155 51.8571 226.155 51.6601C226.154 51.4632 226.196 51.2681 226.277 51.0859C226.358 50.9038 226.478 50.7382 226.628 50.5987C226.778 50.4591 226.957 50.3483 227.154 50.2726C227.351 50.1968 227.562 50.1576 227.775 50.1572C227.988 50.1568 228.199 50.1952 228.397 50.2702L271.767 66.7701C272.165 66.9215 272.481 67.2129 272.647 67.5801C272.813 67.9473 272.814 68.3603 272.65 68.7281C272.486 69.0959 272.17 69.3885 271.773 69.5414C271.375 69.6944 270.928 69.6953 270.53 69.5438V69.5438Z" fill="#C4C4C4"/>
<path d="M255.447 74.9799L222.901 62.5979C222.503 62.4464 222.186 62.155 222.02 61.7878C221.855 61.4206 221.854 61.0077 222.018 60.6399C222.182 60.2721 222.497 59.9795 222.895 59.8265C223.292 59.6735 223.739 59.6727 224.137 59.8242L256.684 72.2062C257.082 72.3577 257.399 72.6491 257.564 73.0163C257.73 73.3835 257.731 73.7964 257.567 74.1642C257.403 74.532 257.087 74.8246 256.69 74.9776C256.292 75.1306 255.845 75.1314 255.447 74.9799V74.9799Z" fill="#C4C4C4"/>
<path d="M246.683 123.912L148.6 86.5973C148.403 86.5223 148.224 86.4121 148.073 86.2732C147.922 86.1342 147.802 85.969 147.72 85.7872C147.638 85.6054 147.595 85.4104 147.595 85.2135C147.594 85.0165 147.636 84.8214 147.717 84.6393C147.798 84.4572 147.917 84.2916 148.068 84.152C148.218 84.0125 148.397 83.9017 148.594 83.8259C148.791 83.7502 149.002 83.711 149.215 83.7106C149.428 83.7102 149.639 83.7486 149.837 83.8236L247.919 121.139C248.318 121.29 248.634 121.581 248.8 121.949C248.966 122.316 248.966 122.729 248.802 123.097C248.638 123.464 248.323 123.757 247.926 123.91C247.528 124.063 247.081 124.064 246.683 123.912V123.912Z" fill="#C4C4C4"/>
<path d="M218.737 124.455L144.341 96.1514C144.144 96.0763 143.964 95.9662 143.813 95.8272C143.662 95.6882 143.542 95.5231 143.46 95.3413C143.378 95.1595 143.336 94.9645 143.335 94.7676C143.335 94.5706 143.377 94.3755 143.458 94.1934C143.539 94.0112 143.658 93.8457 143.809 93.7061C143.959 93.5665 144.138 93.4557 144.335 93.38C144.531 93.3042 144.743 93.2651 144.956 93.2647C145.169 93.2643 145.38 93.3026 145.577 93.3777L219.973 121.681C220.171 121.756 220.35 121.866 220.501 122.005C220.652 122.144 220.772 122.309 220.854 122.491C220.936 122.673 220.978 122.868 220.979 123.065C220.979 123.262 220.938 123.457 220.856 123.639C220.775 123.821 220.656 123.987 220.506 124.126C220.355 124.266 220.176 124.377 219.98 124.453C219.783 124.528 219.572 124.568 219.358 124.568C219.145 124.568 218.934 124.53 218.737 124.455V124.455Z" fill="#C4C4C4"/>
<path d="M238.164 143.02L140.081 105.705C139.683 105.554 139.367 105.262 139.201 104.895C139.035 104.528 139.035 104.115 139.199 103.747C139.362 103.379 139.678 103.087 140.075 102.934C140.473 102.781 140.92 102.78 141.318 102.931L239.401 140.246C239.799 140.398 240.116 140.689 240.281 141.057C240.447 141.424 240.448 141.837 240.284 142.204C240.12 142.572 239.804 142.865 239.407 143.018C239.009 143.171 238.562 143.172 238.164 143.02Z" fill="#C4C4C4"/>
<path d="M233.905 152.574L135.822 115.259C135.424 115.108 135.107 114.816 134.942 114.449C134.776 114.082 134.775 113.669 134.939 113.301C135.103 112.933 135.419 112.641 135.816 112.488C136.214 112.335 136.661 112.334 137.059 112.485L235.142 149.8C235.339 149.875 235.518 149.986 235.669 150.125C235.82 150.264 235.94 150.429 236.022 150.611C236.104 150.792 236.147 150.987 236.147 151.184C236.147 151.381 236.106 151.576 236.025 151.758C235.943 151.941 235.824 152.106 235.674 152.246C235.523 152.385 235.345 152.496 235.148 152.572C234.951 152.648 234.74 152.687 234.527 152.687C234.313 152.688 234.102 152.649 233.905 152.574V152.574Z" fill="#C4C4C4"/>
<path d="M186.056 151.864C188.019 151.96 189.987 151.905 191.94 151.699C193.698 151.509 195.53 151.247 197.072 150.393C197.739 150.042 198.306 149.55 198.729 148.958C199.151 148.366 199.416 147.69 199.502 146.986C199.57 146.315 199.406 145.643 199.032 145.065C198.659 144.487 198.096 144.033 197.425 143.77C196.745 143.506 195.999 143.416 195.268 143.51C194.536 143.605 193.846 143.881 193.271 144.308C192.656 144.801 192.169 145.417 191.848 146.108C191.526 146.799 191.378 147.549 191.413 148.3C191.494 151.387 194.138 154.436 197.074 155.72C200.381 157.167 204.896 155.937 205.743 152.376C205.92 151.635 204.827 151.378 204.371 151.854C203.747 152.488 203.41 153.319 203.427 154.176C203.445 155.033 203.816 155.852 204.464 156.465C205.113 157.077 205.99 157.438 206.918 157.474C207.845 157.509 208.751 157.216 209.452 156.654L208.223 156.187C208.58 157.57 209.325 158.841 210.384 159.874C211.442 160.906 212.775 161.663 214.251 162.068C214.978 162.269 215.733 162.375 216.493 162.383C217.417 162.386 218.365 162.814 219.248 163.08L225.613 164.995C226.549 165.277 227.143 163.964 226.199 163.68L220.435 161.945C219.475 161.656 218.516 161.359 217.553 161.078C216.865 160.877 216.111 160.986 215.392 160.867C214.048 160.632 212.803 160.049 211.804 159.186C210.805 158.322 210.092 157.214 209.748 155.991C209.727 155.869 209.673 155.754 209.59 155.658C209.507 155.561 209.399 155.485 209.276 155.438C209.152 155.391 209.018 155.375 208.885 155.389C208.753 155.404 208.627 155.45 208.519 155.523C208.116 155.877 207.579 156.07 207.023 156.059C206.467 156.049 205.938 155.836 205.552 155.467C205.165 155.098 204.952 154.603 204.959 154.089C204.966 153.576 205.191 153.086 205.588 152.725L204.215 152.203C203.669 154.501 200.635 155.363 198.448 154.699C196.003 153.956 193.901 151.793 193.171 149.529C192.976 148.985 192.905 148.409 192.961 147.838C193.018 147.267 193.201 146.714 193.5 146.211C193.766 145.753 194.181 145.383 194.687 145.155C195.192 144.926 195.763 144.849 196.318 144.936C196.814 145.001 197.263 145.241 197.571 145.606C197.878 145.97 198.021 146.431 197.967 146.891C197.886 147.409 197.668 147.9 197.333 148.321C196.997 148.742 196.555 149.081 196.045 149.307C194.669 149.99 193.02 150.16 191.492 150.314C189.749 150.49 187.994 150.536 186.243 150.452C185.26 150.407 185.063 151.818 186.056 151.864L186.056 151.864Z" fill="#FFCD2C"/>
<path d="M291.273 111.843V224.843H72.5137V91.4027H106.747L138.313 111.843H291.273Z" fill="#F8F8F8"/>
<path d="M175.214 203.631H85.873V210.188H175.214V203.631Z" fill="#FFCD2C"/>
<path d="M130.543 190.904H85.873V197.461H130.543V190.904Z" fill="#FFCD2C"/>
<path d="M291.691 225.229H72.0962V91.0171H106.879L138.446 111.457H291.691V225.229ZM72.9312 224.457H290.856V112.229H138.183L106.615 91.7884H72.9312V224.457Z" fill="#0E1A32"/>
<path d="M380.357 211.59L372.955 214.034L359.229 188.821L370.154 185.214L380.357 211.59Z" fill="#9F616A"/>
<path d="M360.942 225.475L360.834 225.196C359.957 222.92 360.092 220.415 361.212 218.231C362.331 216.047 364.342 214.362 366.804 213.547L381.382 208.734L384.81 217.595L360.942 225.475Z" fill="#1F1F1F"/>
<path d="M332.223 218.353H324.362L320.623 190.344L332.224 190.344L332.223 218.353Z" fill="#9F616A"/>
<path d="M334.228 225.392L308.882 225.391V225.095C308.882 223.898 309.137 222.713 309.633 221.608C310.129 220.502 310.855 219.497 311.771 218.651C312.688 217.805 313.775 217.133 314.972 216.675C316.169 216.218 317.452 215.982 318.747 215.982H318.748L334.228 215.982L334.228 225.392Z" fill="#1F1F1F"/>
<path d="M350.138 39.4098L346.719 33.1696C346.719 33.1696 333.984 36.1171 332.826 42.9357L350.138 39.4098Z" fill="#FFCD2C"/>
<path d="M364.244 110.762L354.947 158.689L379.632 199.017L364.885 204.348L339.879 165.255L336.673 154.594L334.749 210.271L321.45 209.898L315.352 157.909L325.132 109.578L364.244 110.762Z" fill="#1F1F1F"/>
<path d="M362.319 89.11L361.998 61.006C361.998 49.0951 353.512 40.3161 352.336 39.504C351.782 37.8723 350.789 36.7444 349.385 36.1541C346.556 34.9698 343.097 36.391 342.951 36.4549L332.572 40.0492L332.524 40.1808C332.414 40.4815 321.942 72.225 319.313 80.1919C318.938 81.3348 318.723 81.989 318.723 81.989C318.723 81.989 318.763 83.8313 318.837 86.6962C319.069 96.5467 319.618 118.489 319.838 119.41C319.838 119.41 339.007 122.094 346.597 122.094C360.252 122.094 368.925 119.68 369.12 119.639L369.433 119.579L362.319 89.11Z" fill="#0E1A32"/>
<path d="M342.831 29.6164C349.63 26.1828 352.129 18.3074 348.412 12.0262C344.695 5.74493 336.17 3.43648 329.371 6.87008C322.572 10.3037 320.073 18.1791 323.79 24.4603C327.506 30.7415 336.031 33.05 342.831 29.6164Z" fill="#9F616A"/>
<path opacity="0.2" d="M337.656 83.1621L318.837 86.6962C318.763 83.8313 318.723 81.9891 318.723 81.9891C318.723 81.9891 318.938 81.3349 319.313 80.1919L337.656 83.1621Z" fill="#1F1F1F"/>
<path d="M281.926 79.4575C282.594 79.9868 283.38 80.3743 284.228 80.5927C285.076 80.8111 285.965 80.8551 286.833 80.7217C287.702 80.5882 288.528 80.2805 289.253 79.8202C289.979 79.3599 290.587 78.7582 291.033 78.0575L312.011 81.9505L307.838 72.4297L288.557 70.1925C287.233 69.5773 285.711 69.4321 284.279 69.7844C282.846 70.1368 281.604 70.9622 280.787 72.1042C279.969 73.2462 279.634 74.6255 279.844 75.9808C280.054 77.3361 280.795 78.5731 281.926 79.4575V79.4575Z" fill="#9F616A"/>
<path d="M306.773 71.8576L299.217 70.8931L296.697 80.5918L306.235 81.0962L306.773 71.8576Z" fill="#FFCD2C"/>
<path d="M304.189 69.9883L326.546 67.697L338.407 48.2564C339.633 46.2473 341.609 44.7189 343.965 43.9567C346.321 43.1945 348.897 43.2505 351.212 44.1143C353.526 44.9781 355.422 46.5906 356.544 48.6508C357.666 50.711 357.938 53.078 357.309 55.3099L357.241 55.5514L337.302 82.4261L300.02 84.1246L304.189 69.9883Z" fill="#0E1A32"/>
<path d="M348.052 29.4967L336.406 29.8829C335.697 29.9064 333.77 22.8293 333.518 21.3612C333.318 20.4054 332.749 19.5493 331.917 18.9528C331.084 18.3562 330.045 18.0601 328.993 18.1197C328.121 18.1958 325.923 16.6913 323.655 14.9097C319.348 11.5275 319.572 5.17515 324.303 2.31715C324.432 2.23903 324.559 2.16771 324.684 2.10317C327.668 0.560081 331.159 0.0418911 334.579 0.0023758C337.679 -0.0334448 340.867 0.327014 343.598 1.68254C348.495 4.1127 351.101 9.42329 351.329 14.5536C351.558 19.684 349.778 24.7005 347.758 29.4841" fill="#1F1F1F"/>
<path d="M397.831 226H1.22461C1.11389 226 1.0077 225.959 0.929406 225.887C0.851113 225.815 0.807129 225.717 0.807129 225.614C0.807129 225.512 0.851113 225.414 0.929406 225.342C1.0077 225.269 1.11389 225.229 1.22461 225.229H397.831C397.942 225.229 398.048 225.269 398.126 225.342C398.205 225.414 398.249 225.512 398.249 225.614C398.249 225.717 398.205 225.815 398.126 225.887C398.048 225.959 397.942 226 397.831 226Z" fill="#CBCBCB"/>
</g>
<defs>
<clipPath id="clip0_125_216">
<rect width="397.441" height="226" fill="white" transform="translate(0.807129)"/>
</clipPath>
</defs>
</svg>
