<svg width="492" height="320" viewBox="0 0 492 320" fill="none" xmlns="http://www.w3.org/2000/svg">
<g clip-path="url(#clip0_125_33)">
<path d="M109.023 32.0547H77.6469C74.6305 32.0573 71.7383 33.1644 69.6054 35.1331C67.4724 37.1018 66.2729 39.7712 66.2702 42.5554V73.9525C65.8691 73.9304 65.4679 73.8972 65.0726 73.853C57.6394 73.1312 50.5725 70.5071 44.6686 66.2765C38.7648 62.046 34.2588 56.3773 31.6586 49.9095C29.0585 43.4417 28.4676 36.4321 29.9527 29.671C31.4378 22.9098 34.9397 16.6661 40.0636 11.6436C45.1875 6.62119 51.7297 3.01982 58.9525 1.24557C66.1753 -0.528682 73.7915 -0.405264 80.9424 1.60192C88.0932 3.6091 94.4944 7.42022 99.4242 12.6056C104.354 17.7909 107.616 24.1443 108.843 30.9494C108.909 31.3141 108.969 31.6845 109.023 32.0547Z" fill="#EDF2F3"/>
<path d="M479.426 30.9495H77.647C74.3133 30.9528 71.1171 32.1767 68.7597 34.3525C66.4024 36.5283 65.0764 39.4784 65.0728 42.5555V238.2C65.0764 241.277 66.4024 244.227 68.7597 246.403C71.1171 248.579 74.3133 249.803 77.647 249.806H479.426C482.759 249.803 485.956 248.579 488.313 246.403C490.67 244.227 491.996 241.277 492 238.2V42.5555C491.996 39.4784 490.67 36.5283 488.313 34.3525C485.956 32.1767 482.759 30.9528 479.426 30.9495ZM490.802 238.2C490.8 240.984 489.6 243.654 487.467 245.622C485.334 247.591 482.442 248.698 479.426 248.701H77.647C74.6306 248.698 71.7385 247.591 69.6055 245.622C67.4725 243.654 66.273 240.984 66.2703 238.2V42.5555C66.273 39.7713 67.4725 37.1019 69.6055 35.1332C71.7385 33.1644 74.6306 32.0573 77.647 32.0548H479.426C482.442 32.0573 485.334 33.1644 487.467 35.1332C489.6 37.1019 490.8 39.7713 490.802 42.5555V238.2Z" fill="#0E1A32"/>
<path d="M459.666 62.6558H97.4064C97.2476 62.6558 97.0953 62.5975 96.983 62.4939C96.8707 62.3902 96.8076 62.2497 96.8076 62.1031C96.8076 61.9565 96.8707 61.8159 96.983 61.7123C97.0953 61.6087 97.2476 61.5504 97.4064 61.5504H459.666C459.825 61.5504 459.977 61.6087 460.089 61.7123C460.202 61.8159 460.265 61.9565 460.265 62.1031C460.265 62.2497 460.202 62.3902 460.089 62.4939C459.977 62.5975 459.825 62.6558 459.666 62.6558Z" fill="#0E1A32"/>
<path d="M199.798 226.041C199.639 226.041 199.486 225.983 199.374 225.879C199.262 225.776 199.199 225.635 199.199 225.489V43.6608C199.199 43.5142 199.262 43.3737 199.374 43.27C199.486 43.1664 199.639 43.1082 199.798 43.1082C199.956 43.1082 200.109 43.1664 200.221 43.27C200.333 43.3737 200.396 43.5142 200.396 43.6608V225.489C200.396 225.635 200.333 225.776 200.221 225.879C200.109 225.983 199.956 226.041 199.798 226.041V226.041Z" fill="#0E1A32"/>
<path d="M290.213 226.041C290.054 226.041 289.901 225.983 289.789 225.879C289.677 225.776 289.614 225.635 289.614 225.489V43.6608C289.614 43.5142 289.677 43.3737 289.789 43.27C289.901 43.1664 290.054 43.1082 290.213 43.1082C290.371 43.1082 290.524 43.1664 290.636 43.27C290.748 43.3737 290.811 43.5142 290.811 43.6608V225.489C290.811 225.635 290.748 225.776 290.636 225.879C290.524 225.983 290.371 226.041 290.213 226.041V226.041Z" fill="#0E1A32"/>
<path d="M380.628 226.041C380.469 226.041 380.316 225.983 380.204 225.879C380.092 225.776 380.029 225.635 380.029 225.489V43.6608C380.029 43.5142 380.092 43.3737 380.204 43.27C380.316 43.1664 380.469 43.1082 380.628 43.1082C380.786 43.1082 380.939 43.1664 381.051 43.27C381.163 43.3737 381.226 43.5142 381.226 43.6608V225.489C381.226 225.635 381.163 225.776 381.051 225.879C380.939 225.983 380.786 226.041 380.628 226.041V226.041Z" fill="#0E1A32"/>
<path d="M141.666 119.701H119.786C119.072 119.7 118.387 119.438 117.882 118.972C117.377 118.505 117.093 117.873 117.092 117.214V93.3831C117.093 92.7238 117.377 92.0916 117.882 91.6253C118.387 91.1591 119.072 90.8968 119.786 90.8961H141.666C142.38 90.8968 143.065 91.1591 143.57 91.6253C144.075 92.0916 144.359 92.7238 144.36 93.3831V117.214C144.359 117.873 144.075 118.505 143.57 118.972C143.065 119.438 142.38 119.7 141.666 119.701V119.701Z" fill="#1BA168"/>
<path d="M172.802 187.679H150.923C150.208 187.678 149.523 187.416 149.018 186.95C148.513 186.484 148.229 185.851 148.228 185.192V161.361C148.229 160.702 148.513 160.07 149.018 159.603C149.523 159.137 150.208 158.875 150.923 158.874H172.802C173.516 158.875 174.201 159.137 174.706 159.603C175.211 160.07 175.495 160.702 175.496 161.361V185.192C175.495 185.851 175.211 186.484 174.706 186.95C174.201 187.416 173.516 187.678 172.802 187.679V187.679Z" fill="#1BA168"/>
<path d="M243.458 134.07H221.578C220.864 134.069 220.179 133.807 219.674 133.341C219.169 132.875 218.885 132.243 218.884 131.583V107.752C218.885 107.093 219.169 106.461 219.674 105.995C220.179 105.528 220.864 105.266 221.578 105.265H243.458C244.172 105.266 244.857 105.528 245.362 105.995C245.867 106.461 246.151 107.093 246.152 107.752V131.583C246.151 132.243 245.867 132.875 245.362 133.341C244.857 133.807 244.172 134.069 243.458 134.07V134.07Z" fill="#1BA168"/>
<path d="M335.07 108.095H313.191C312.477 108.094 311.792 107.832 311.287 107.366C310.782 106.899 310.497 106.267 310.497 105.608V81.777C310.497 81.1177 310.782 80.4855 311.287 80.0193C311.792 79.553 312.477 79.2908 313.191 79.29H335.07C335.785 79.2908 336.47 79.553 336.975 80.0193C337.48 80.4855 337.764 81.1177 337.765 81.777V105.608C337.764 106.267 337.48 106.899 336.975 107.366C336.47 107.832 335.785 108.094 335.07 108.095V108.095Z" fill="#1BA168"/>
<path d="M419.498 108.095H397.618C396.904 108.094 396.219 107.832 395.714 107.366C395.209 106.899 394.925 106.267 394.924 105.608V81.777C394.925 81.1177 395.209 80.4855 395.714 80.0193C396.219 79.553 396.904 79.2908 397.618 79.29H419.498C420.212 79.2908 420.897 79.553 421.402 80.0193C421.907 80.4855 422.191 81.1177 422.192 81.777V105.608C422.191 106.267 421.907 106.899 421.402 107.366C420.897 107.832 420.212 108.094 419.498 108.095V108.095Z" fill="#1BA168"/>
<path d="M458.418 114.727H436.539C435.824 114.726 435.139 114.464 434.634 113.998C434.129 113.531 433.845 112.899 433.844 112.24V88.4091C433.845 87.7498 434.129 87.1176 434.634 86.6514C435.139 86.1851 435.824 85.9229 436.539 85.9221H458.418C459.132 85.9229 459.817 86.1851 460.322 86.6514C460.828 87.1176 461.112 87.7498 461.112 88.4091V112.24C461.112 112.899 460.828 113.531 460.322 113.998C459.817 114.464 459.132 114.726 458.418 114.727Z" fill="#E6E6E6"/>
<path d="M441.054 157.282H419.174C418.46 157.282 417.775 157.019 417.27 156.553C416.765 156.087 416.481 155.455 416.48 154.795V130.965C416.481 130.305 416.765 129.673 417.27 129.207C417.775 128.741 418.46 128.478 419.174 128.478H441.054C441.768 128.478 442.453 128.741 442.958 129.207C443.463 129.673 443.747 130.305 443.748 130.965V154.795C443.747 155.455 443.463 156.087 442.958 156.553C442.453 157.019 441.768 157.282 441.054 157.282Z" fill="#E6E6E6"/>
<path d="M366.805 148.44H344.926C344.212 148.439 343.527 148.177 343.022 147.71C342.516 147.244 342.232 146.612 342.231 145.953V122.122C342.232 121.462 342.516 120.83 343.022 120.364C343.527 119.898 344.212 119.636 344.926 119.635H366.805C367.52 119.636 368.204 119.898 368.71 120.364C369.215 120.83 369.499 121.462 369.5 122.122V145.953C369.499 146.612 369.215 147.244 368.71 147.71C368.204 148.177 367.52 148.439 366.805 148.44Z" fill="#274A8E"/>
<path d="M324.293 157.282H302.413C301.699 157.282 301.014 157.019 300.509 156.553C300.004 156.087 299.72 155.455 299.719 154.795V130.965C299.72 130.305 300.004 129.673 300.509 129.207C301.014 128.741 301.699 128.478 302.413 128.478H324.293C325.007 128.478 325.692 128.741 326.197 129.207C326.702 129.673 326.986 130.305 326.987 130.965V154.795C326.986 155.455 326.702 156.087 326.197 156.553C325.692 157.019 325.007 157.282 324.293 157.282V157.282Z" fill="#E6E6E6"/>
<path d="M232.68 194.864H210.8C210.086 194.863 209.401 194.601 208.896 194.134C208.391 193.668 208.107 193.036 208.106 192.377V168.546C208.107 167.886 208.391 167.254 208.896 166.788C209.401 166.322 210.086 166.06 210.8 166.059H232.68C233.394 166.06 234.079 166.322 234.584 166.788C235.089 167.254 235.373 167.886 235.374 168.546V192.377C235.373 193.036 235.089 193.668 234.584 194.134C234.079 194.601 233.394 194.863 232.68 194.864Z" fill="#E6E6E6"/>
<path d="M121.906 163.362H100.027C99.3121 163.361 98.6273 163.099 98.1221 162.632C97.617 162.166 97.3328 161.534 97.332 160.875V137.044C97.3328 136.385 97.617 135.752 98.1221 135.286C98.6273 134.82 99.3121 134.558 100.027 134.557H121.906C122.62 134.558 123.305 134.82 123.81 135.286C124.315 135.752 124.6 136.385 124.6 137.044V160.875C124.6 161.534 124.315 162.166 123.81 162.632C123.305 163.099 122.62 163.361 121.906 163.362V163.362Z" fill="#274A8E"/>
<path d="M183.58 119.701H161.7C160.986 119.7 160.301 119.438 159.796 118.972C159.291 118.505 159.007 117.873 159.006 117.214V93.3831C159.007 92.7238 159.291 92.0916 159.796 91.6253C160.301 91.1591 160.986 90.8968 161.7 90.8961H183.58C184.294 90.8968 184.979 91.1591 185.484 91.6253C185.989 92.0916 186.273 92.7238 186.274 93.3831V117.214C186.273 117.873 185.989 118.505 185.484 118.972C184.979 119.438 184.294 119.7 183.58 119.701V119.701Z" fill="#E6E6E6"/>
<path d="M165.667 53.6088H131.537C130.901 53.6088 130.292 53.3759 129.843 52.9614C129.394 52.5468 129.142 51.9845 129.142 51.3982C129.142 50.8119 129.394 50.2496 129.843 49.835C130.292 49.4204 130.901 49.1875 131.537 49.1875H165.667C166.302 49.1875 166.911 49.4204 167.361 49.835C167.81 50.2496 168.062 50.8119 168.062 51.3982C168.062 51.9845 167.81 52.5468 167.361 52.9614C166.911 53.3759 166.302 53.6088 165.667 53.6088Z" fill="#EDF2F3"/>
<path d="M262.07 53.6088H227.94C227.305 53.6088 226.696 53.3759 226.246 52.9614C225.797 52.5468 225.545 51.9845 225.545 51.3982C225.545 50.8119 225.797 50.2496 226.246 49.835C226.696 49.4204 227.305 49.1875 227.94 49.1875H262.07C262.705 49.1875 263.315 49.4204 263.764 49.835C264.213 50.2496 264.465 50.8119 264.465 51.3982C264.465 51.9845 264.213 52.5468 263.764 52.9614C263.315 53.3759 262.705 53.6088 262.07 53.6088Z" fill="#EDF2F3"/>
<path d="M352.485 53.6088H318.355C317.72 53.6088 317.111 53.3759 316.661 52.9614C316.212 52.5468 315.96 51.9845 315.96 51.3982C315.96 50.8119 316.212 50.2496 316.661 49.835C317.111 49.4204 317.72 49.1875 318.355 49.1875H352.485C353.121 49.1875 353.73 49.4204 354.179 49.835C354.628 50.2496 354.88 50.8119 354.88 51.3982C354.88 51.9845 354.628 52.5468 354.179 52.9614C353.73 53.3759 353.121 53.6088 352.485 53.6088Z" fill="#EDF2F3"/>
<path d="M436.913 53.6088H402.782C402.147 53.6088 401.538 53.3759 401.089 52.9614C400.64 52.5468 400.387 51.9845 400.387 51.3982C400.387 50.8119 400.64 50.2496 401.089 49.835C401.538 49.4204 402.147 49.1875 402.782 49.1875H436.913C437.548 49.1875 438.157 49.4204 438.606 49.835C439.055 50.2496 439.308 50.8119 439.308 51.3982C439.308 51.9845 439.055 52.5468 438.606 52.9614C438.157 53.3759 437.548 53.6088 436.913 53.6088Z" fill="#EDF2F3"/>
<path d="M89.2233 215.48C88.3472 215.401 87.5006 215.146 86.7431 214.732C85.9856 214.318 85.3356 213.756 84.839 213.085C84.3423 212.414 84.011 211.651 83.8685 210.849C83.7259 210.048 83.7755 209.227 84.0139 208.445L68.6655 195.257L76.7806 193.357L91.8732 204.656C93.2702 205.113 94.4372 206.026 95.153 207.224C95.8689 208.422 96.0839 209.82 95.7572 211.155C95.4306 212.489 94.585 213.666 93.3808 214.463C92.1765 215.261 90.6973 215.623 89.2233 215.48V215.48Z" fill="#FFB8B8"/>
<path d="M110.417 312.95H117.758L121.25 286.815H110.416L110.417 312.95Z" fill="#FFB8B8"/>
<path d="M131.915 319.241L108.844 319.242L108.843 311.014L123.001 311.013C125.365 311.013 127.632 311.88 129.304 313.423C130.976 314.966 131.915 317.059 131.915 319.241V319.241L131.915 319.241Z" fill="#1F1F1F"/>
<path d="M60.084 308.058L67.1783 309.801L77.8371 285.375L67.3675 282.803L60.084 308.058Z" fill="#FFB8B8"/>
<path d="M79.106 319.243L56.811 313.765L59.1039 305.815L72.7849 309.176C75.0694 309.737 77.0188 311.113 78.2043 313.001C79.3897 314.889 79.7141 317.134 79.106 319.243V319.243V319.243Z" fill="#1F1F1F"/>
<path d="M119.732 308.002H108.53C107.823 308.004 107.14 307.762 106.616 307.323C106.093 306.883 105.766 306.279 105.701 305.629L98.9006 240.452C98.8507 239.974 98.6224 239.527 98.2548 239.187C97.8871 238.847 97.4028 238.636 96.885 238.589C96.3671 238.542 95.8477 238.663 95.4157 238.931C94.9837 239.199 94.666 239.597 94.5169 240.057L74.7732 300.961C74.5644 301.608 74.0929 302.156 73.457 302.49C72.8211 302.824 72.07 302.919 71.3602 302.755L60.9397 300.35C60.576 300.266 60.2339 300.116 59.933 299.91C59.6321 299.703 59.3784 299.444 59.1866 299.147C58.9947 298.85 58.8685 298.52 58.8151 298.178C58.7617 297.835 58.7823 297.486 58.8755 297.151C59.0457 296.538 75.8871 235.789 76.0342 235.165C79.8501 209.207 84.4153 202.252 86.8679 198.515C87.0709 198.206 87.2575 197.921 87.4254 197.653C87.6356 197.316 88.9298 193.98 89.7508 191.814C89.8574 191.462 90.042 191.133 90.293 190.85C90.5439 190.567 90.8558 190.335 91.2088 190.168C101.514 185.304 113.572 188.671 117.022 189.819C117.594 190.005 118.085 190.357 118.422 190.823C128.771 205.231 123.692 288.916 122.569 305.546C122.522 306.211 122.203 306.835 121.676 307.291C121.149 307.747 120.454 308.001 119.732 308.002V308.002Z" fill="#1F1F1F"/>
<path d="M90.8247 142.912C98.9469 142.912 105.531 136.834 105.531 129.338C105.531 121.841 98.9469 115.764 90.8247 115.764C82.7025 115.764 76.1182 121.841 76.1182 129.338C76.1182 136.834 82.7025 142.912 90.8247 142.912Z" fill="#FFB8B8"/>
<path d="M89.2664 194.449L89.1608 194.355C88.9625 194.178 69.3678 176.46 71.9037 160.076C72.9882 153.068 79.1311 148.591 89.668 147.127C93.539 146.596 97.4875 147.373 100.788 149.314C104.088 151.256 106.518 154.231 107.631 157.694L118.05 190.569L89.2664 194.449Z" fill="#EDF2F3"/>
<path d="M79.2379 207.052L65.2754 194.246C64.3207 193.365 63.6276 192.273 63.2627 191.073C62.8978 189.874 62.8733 188.608 63.1918 187.398L69.9511 162.02C70.1536 161.259 70.523 160.545 71.0365 159.922C71.55 159.298 72.1967 158.779 72.9364 158.396C73.6762 158.012 74.4934 157.773 75.3373 157.693C76.1813 157.613 77.0341 157.693 77.8429 157.93C79.3847 158.388 80.6724 159.383 81.4334 160.703C82.1944 162.023 82.369 163.564 81.9201 165L74.8039 187.326L86.3113 198.732L79.2379 207.052Z" fill="#EDF2F3"/>
<path d="M154.128 163.348C153.759 164.085 153.219 164.739 152.546 165.263C151.874 165.788 151.085 166.169 150.235 166.382C149.385 166.594 148.495 166.632 147.628 166.492C146.761 166.353 145.938 166.039 145.216 165.574L126.576 174.491L127.4 166.917L143.924 157.478C144.851 156.41 146.17 155.694 147.631 155.464C149.092 155.234 150.593 155.506 151.851 156.23C153.109 156.953 154.035 158.078 154.455 159.39C154.874 160.701 154.758 162.11 154.128 163.348H154.128Z" fill="#FFB8B8"/>
<path d="M143.18 168.986L125.009 176.234C123.8 176.712 122.477 176.896 121.169 176.766C119.86 176.637 118.61 176.198 117.538 175.494L94.4321 160.213C93.7425 159.757 93.1617 159.175 92.7255 158.504C92.2893 157.832 92.0071 157.085 91.8963 156.309C91.7856 155.532 91.8486 154.743 92.0815 153.99C92.3144 153.237 92.7123 152.536 93.2504 151.931C94.2846 150.78 95.7636 150.046 97.374 149.884C98.9844 149.723 100.6 150.146 101.878 151.064L121.691 165.457L137.438 159.834L143.18 168.986Z" fill="#EDF2F3"/>
<path d="M93.2627 133.687C95.077 131.589 98.4666 131.476 100.959 130.092C104.223 128.279 105.573 124.228 104.521 120.848C103.469 117.469 100.366 114.835 96.8094 113.575C93.2525 112.315 89.2952 112.3 85.5429 112.909C79.9562 113.815 74.4559 116.222 71.0487 120.408C67.6414 124.594 66.7743 130.724 69.8622 135.116C71.2814 137.134 73.4723 138.801 74.039 141.149C74.7828 144.233 72.4394 147.207 69.9288 149.354C67.0686 151.801 63.7872 153.849 61.2813 156.607C58.7755 159.364 57.1045 163.132 58.248 166.573C59.206 169.456 61.9938 171.58 65.0509 172.643C68.108 173.707 71.4375 173.861 74.7039 173.92C77.8757 173.977 81.2447 173.906 83.9167 172.327C86.7771 170.637 88.3044 167.431 88.4172 164.298C88.5301 161.166 87.3958 158.096 85.8756 155.293C84.9696 153.622 83.916 152.003 83.314 150.219C82.7119 148.436 82.6076 146.411 83.5718 144.769C84.5853 143.042 86.6358 142 88.7237 141.622C88.8322 141.602 88.947 141.584 89.067 141.569C89.6611 141.498 90.2334 141.316 90.7492 141.035C91.2651 140.754 91.7138 140.379 92.0683 139.933C92.4228 139.488 92.6756 138.98 92.8116 138.442C92.9475 137.903 92.9637 137.345 92.8592 136.8C92.6214 135.577 92.6419 134.405 93.2627 133.687Z" fill="#1F1F1F"/>
<path d="M289.346 313.528H282.005L278.513 287.394L289.347 287.394L289.346 313.528Z" fill="#A0616A"/>
<path d="M276.762 311.592H290.919V319.82H267.848C267.848 318.739 268.078 317.67 268.526 316.671C268.974 315.673 269.631 314.766 270.458 314.002C271.286 313.238 272.269 312.632 273.35 312.219C274.432 311.805 275.591 311.592 276.762 311.592Z" fill="#1F1F1F"/>
<path d="M342.61 305.854L335.933 308.668L320.991 286.236L330.846 282.081L342.61 305.854Z" fill="#A0616A"/>
<path d="M330.292 308.918L343.169 303.489L346.873 310.973L325.887 319.82C325.401 318.838 325.129 317.776 325.087 316.696C325.045 315.616 325.234 314.54 325.643 313.527C326.052 312.515 326.673 311.587 327.471 310.796C328.268 310.005 329.227 309.367 330.292 308.918V308.918Z" fill="#1F1F1F"/>
<path d="M321.232 225.409C321.935 224.921 322.514 224.296 322.928 223.579C323.341 222.861 323.579 222.069 323.624 221.258C323.67 220.446 323.523 219.636 323.192 218.883C322.862 218.129 322.356 217.453 321.712 216.899L330.341 198.827L319.378 200.542L312.865 217.441C311.929 218.502 311.448 219.843 311.513 221.209C311.577 222.576 312.182 223.873 313.213 224.855C314.245 225.838 315.631 226.437 317.109 226.539C318.587 226.641 320.054 226.239 321.232 225.409Z" fill="#A0616A"/>
<path d="M288.878 306.638H281.865C281.185 306.635 280.531 306.397 280.033 305.969C279.535 305.542 279.229 304.957 279.178 304.331L275.353 210.069C275.325 209.707 275.382 209.345 275.521 209.006C275.661 208.667 275.878 208.361 276.159 208.108C276.44 207.855 276.777 207.662 277.148 207.542C277.518 207.422 277.912 207.378 278.302 207.413L318.86 211.389C319.518 211.448 320.129 211.728 320.577 212.176C321.025 212.623 321.28 213.207 321.293 213.817L322.143 255.397C322.147 255.623 322.195 255.846 322.283 256.057L338.92 295.878C339.048 296.185 339.109 296.514 339.099 296.843C339.089 297.173 339.008 297.497 338.861 297.798C338.713 298.098 338.503 298.368 338.241 298.593C337.98 298.818 337.672 298.992 337.337 299.106L330.231 301.523C329.613 301.732 328.934 301.727 328.322 301.506C327.709 301.286 327.204 300.866 326.903 300.327L306.465 263.647C306.354 263.447 306.273 263.235 306.223 263.015L302.732 247.489C302.631 247.038 302.359 246.636 301.966 246.354C301.572 246.072 301.083 245.929 300.585 245.949C300.088 245.97 299.614 246.154 299.25 246.468C298.886 246.781 298.655 247.204 298.598 247.661L291.555 304.433C291.48 305.04 291.166 305.6 290.672 306.007C290.178 306.413 289.54 306.638 288.878 306.638V306.638Z" fill="#1F1F1F"/>
<path d="M292.37 136.365C300.492 136.365 307.077 130.287 307.077 122.791C307.077 115.294 300.492 109.216 292.37 109.216C284.248 109.216 277.664 115.294 277.664 122.791C277.664 130.287 284.248 136.365 292.37 136.365Z" fill="#A0616A"/>
<path d="M302.456 218.688C292.482 218.586 282.747 215.864 274.389 210.841L274.246 210.749L274.261 210.589L279.886 150.119C280.08 148.067 281.072 146.15 282.679 144.721C284.286 143.292 286.399 142.449 288.628 142.347C295.919 142.038 305.712 142.428 310.954 146.032C318.876 151.478 322.694 159.679 321.43 168.532C318.807 186.891 321.778 211.656 322.125 214.42L322.151 214.619L321.953 214.703C315.846 217.325 309.192 218.685 302.456 218.688V218.688Z" fill="#1BA168"/>
<path d="M322.058 214.522C321.643 214.522 321.233 214.442 320.854 214.287C320.474 214.133 320.134 213.908 319.854 213.626L316.637 210.386C316.289 210.034 316.045 209.606 315.929 209.142C315.813 208.678 315.828 208.194 315.973 207.736L323.308 184.821L312.147 163.187C311.626 162.175 311.498 161.027 311.785 159.938C312.039 158.982 312.6 158.119 313.395 157.463C314.191 156.807 315.183 156.39 316.241 156.265C317.299 156.14 318.373 156.314 319.321 156.764C320.269 157.215 321.048 157.92 321.553 158.786L336.699 181.469C337.314 182.389 337.676 183.435 337.751 184.514C337.826 185.593 337.613 186.672 337.13 187.658L324.79 212.895C324.586 213.312 324.274 213.676 323.88 213.954C323.486 214.232 323.024 214.415 322.534 214.487C322.377 214.51 322.217 214.522 322.058 214.522V214.522Z" fill="#1BA168"/>
<path d="M218.396 170.748C219.102 171.233 219.915 171.569 220.778 171.733C221.64 171.896 222.53 171.883 223.387 171.695C224.243 171.506 225.044 171.147 225.733 170.642C226.423 170.136 226.984 169.498 227.377 168.771L248.596 171.311L243.72 162.088L224.317 161.09C222.95 160.561 221.421 160.514 220.018 160.956C218.616 161.399 217.439 162.301 216.709 163.492C215.979 164.682 215.748 166.078 216.059 167.416C216.37 168.753 217.201 169.939 218.396 170.748V170.748Z" fill="#A0616A"/>
<path d="M265.167 175.785C264.798 175.785 264.429 175.762 264.063 175.715L230.68 171.442C230.135 171.372 229.617 171.179 229.172 170.879C228.728 170.579 228.372 170.181 228.135 169.722C228.059 169.574 227.995 169.421 227.945 169.264H227.945C227.816 168.856 227.779 168.427 227.839 168.006C227.898 167.584 228.051 167.179 228.289 166.815L231.051 162.587C231.349 162.135 231.767 161.762 232.265 161.502C232.764 161.242 233.327 161.104 233.899 161.103H233.904L263.002 161.134L284.734 143.162C285.745 142.328 287.036 141.84 288.391 141.781C289.58 141.73 290.758 142.013 291.769 142.593C292.781 143.173 293.578 144.022 294.056 145.028C294.534 146.034 294.671 147.151 294.447 148.23C294.224 149.31 293.651 150.301 292.805 151.074L271.12 173.335C270.37 174.106 269.452 174.723 268.426 175.145C267.401 175.567 266.29 175.785 265.167 175.785V175.785Z" fill="#1BA168"/>
<path d="M294.042 134.866C295.386 131.996 296.523 128.172 293.946 126.142C292.45 124.965 290.297 124.963 288.338 124.816C282.819 124.404 277.137 122.06 274.44 117.596C271.742 113.133 273.249 106.496 278.338 104.483C281.768 103.125 285.701 104.05 289.292 104.99L300.074 107.812C303.277 108.65 306.641 109.575 308.947 111.792C312.625 115.327 312.35 121.304 309.429 125.397C306.507 129.491 302.108 133.76 297.071 135.314L294.042 134.866Z" fill="#1F1F1F"/>
<path d="M442.786 320H0.713068C0.619268 320 0.526339 319.983 0.4396 319.95C0.352862 319.917 0.274027 319.869 0.207604 319.808C0.141181 319.747 0.088478 319.674 0.0525193 319.594C0.0165605 319.514 -0.00195312 319.428 -0.00195312 319.342C-0.00195312 319.255 0.0165605 319.17 0.0525193 319.09C0.088478 319.01 0.141181 318.937 0.207604 318.876C0.274027 318.815 0.352862 318.766 0.4396 318.733C0.526339 318.7 0.619268 318.684 0.713068 318.684H442.786C442.88 318.684 442.973 318.7 443.059 318.733C443.146 318.766 443.225 318.815 443.291 318.876C443.358 318.937 443.41 319.01 443.446 319.09C443.482 319.17 443.501 319.255 443.501 319.342C443.501 319.428 443.482 319.514 443.446 319.594C443.41 319.674 443.358 319.747 443.291 319.808C443.225 319.869 443.146 319.917 443.059 319.95C442.973 319.983 442.88 320 442.786 320V320Z" fill="#0E1A32"/>
</g>
<defs>
<clipPath id="clip0_125_33">
<rect width="492" height="320" fill="white"/>
</clipPath>
</defs>
</svg>
