<svg width="291" height="291" viewBox="0 0 291 291" fill="none" xmlns="http://www.w3.org/2000/svg">
<g clip-path="url(#clip0_125_157)">
<path d="M291 145.5C291.018 161.41 288.422 177.215 283.316 192.284C283.023 193.145 282.723 194.003 282.416 194.858C277.009 209.811 269.19 223.778 259.27 236.205C256.308 239.92 253.17 243.482 249.855 246.889C246.541 250.303 243.061 253.55 239.416 256.631C219.087 273.871 194.391 285.163 168.053 289.261H168.048C164.691 289.782 161.3 290.188 157.876 290.479C153.8 290.824 149.674 290.997 145.5 291C126.089 291.025 106.87 287.154 88.9823 279.615C71.0946 272.077 54.9021 261.025 41.3642 247.113C40.4129 246.14 39.4759 245.153 38.5532 244.152C36.2545 241.659 34.0433 239.089 31.9196 236.442C30.7272 234.952 29.5635 233.44 28.4285 231.905C21.4372 222.459 15.6204 212.199 11.1063 201.35C9.18118 196.729 7.50002 192.01 6.06972 187.213C5.96641 186.873 5.86739 186.533 5.76839 186.193C5.55315 185.461 5.34509 184.725 5.14421 183.984C1.71985 171.443 -0.010243 158.5 4.56191e-05 145.5C4.56191e-05 65.1435 65.1436 0 145.5 0C225.856 0 291 65.1435 291 145.5Z" fill="#EDF2F3"/>
<path d="M61.7076 86.9694C61.4823 88.3371 61.5597 89.7375 61.9342 91.0721C62.3088 92.4067 62.9713 93.6429 63.8753 94.6937C64.7793 95.7444 65.9027 96.5842 67.1663 97.1539C68.43 97.7236 69.8032 98.0092 71.1892 97.9908L94.4151 165.572L109.235 155.387L80.6262 87.7006C80.4409 85.3742 79.4086 83.1967 77.7251 81.5806C76.0415 79.9645 73.8236 79.0221 71.4917 78.9319C69.1597 78.8418 66.8757 79.6102 65.0724 81.0916C63.2692 82.5729 62.0719 84.6643 61.7076 86.9694V86.9694Z" fill="#A0616A"/>
<path d="M182.932 109.835C172.618 121.57 147.186 142.25 126.234 156.49C121.706 159.568 117.384 162.34 113.471 164.66C110.828 166.227 108.37 167.583 106.157 168.69C104.672 169.429 103.05 169.855 101.393 169.939C99.7363 170.022 98.0798 169.763 96.5276 169.177C94.9755 168.591 93.561 167.691 92.3728 166.533C91.1846 165.375 90.2484 163.984 89.6227 162.448L75.1157 127.351L80.135 124.024L92.5112 115.815L95.3221 113.955L106.928 141.596L119.166 131.772L126.764 125.672L161.4 97.8768L164.387 96.99L171.357 103.791L176.286 108.604L180.922 109.409C181.615 109.53 182.286 109.672 182.932 109.835Z" fill="#274A8E"/>
<path d="M275.469 206.267C276.187 207.179 276.932 208.087 277.677 209C275.112 214.267 272.228 219.374 269.042 224.29C268.805 224.123 268.568 223.955 268.331 223.787C268.294 223.766 268.258 223.743 268.224 223.718C267.341 223.089 266.454 222.47 265.572 221.841V221.837C264.844 219.359 264.437 216.799 264.362 214.217C264.817 214.113 265.229 213.871 265.543 213.525C265.856 213.178 266.055 212.744 266.112 212.28C266.17 211.817 266.084 211.347 265.866 210.934C265.647 210.522 265.307 210.186 264.892 209.973C264.776 209.771 264.694 209.624 264.578 209.418C264.582 209.366 264.59 209.31 264.595 209.258C265.271 203.882 272.124 202.005 275.469 206.267Z" fill="white"/>
<path d="M283.196 187.842C283.712 189.263 284.183 190.699 284.608 192.151C284.315 193.012 284.015 193.87 283.708 194.726C283.592 194.274 283.471 193.822 283.346 193.37C282.646 190.856 281.805 188.384 280.828 185.965C280.027 183.981 279.141 182.038 278.168 180.137C272.878 169.808 265.212 160.882 255.8 154.093C251.911 153.194 248.391 151.123 245.714 148.161C244.749 147.097 243.941 145.9 243.317 144.606C243.713 144.55 244.109 144.472 244.496 144.39C244.617 144.365 244.741 144.334 244.862 144.309L244.909 144.3C245.333 144.202 245.719 143.983 246.021 143.671C246.324 143.358 246.529 142.965 246.613 142.539C246.697 142.112 246.657 141.67 246.496 141.266C246.335 140.863 246.06 140.514 245.706 140.262C245.486 140.103 245.262 139.948 245.043 139.793C244.707 139.548 244.367 139.315 244.027 139.074C243.991 139.052 243.957 139.027 243.924 139.001C243.536 138.725 243.149 138.458 242.766 138.179C243.063 137.219 243.577 136.342 244.268 135.613C246.674 133.129 250.97 133.185 253.777 135.208C256.588 137.232 258 140.774 258.181 144.227C258.34 147.184 257.703 150.111 256.864 152.965C257.075 153.12 257.294 153.267 257.505 153.426C261.381 156.298 264.965 159.544 268.207 163.116C266.334 158.673 265.654 152.879 266.14 148.889C266.696 144.343 268.904 140.025 270.712 135.725C272.877 130.559 280.264 130.49 282.348 135.69C282.369 135.742 282.391 135.789 282.408 135.841C282.059 136.19 281.723 136.551 281.401 136.926C280.995 137.398 280.742 137.981 280.674 138.6C280.605 139.218 280.725 139.842 281.018 140.391C281.311 140.94 281.762 141.388 282.314 141.676C282.865 141.964 283.491 142.079 284.108 142.006L284.173 141.997C284.441 143.532 284.594 145.084 284.629 146.642C284.683 150.999 283.835 155.321 282.14 159.336C280.446 163.351 277.94 166.972 274.78 169.973C274.573 170.167 274.371 170.357 274.16 170.542C276.154 173.377 277.945 176.351 279.519 179.44C280.917 182.162 282.145 184.968 283.196 187.842V187.842Z" fill="white"/>
<path d="M200.25 147.459L198.95 236.743L93.9316 233.73L110.703 196.709C110.582 195.521 118.064 187.183 118.021 185.947C117.892 182.327 120.595 178.974 121.034 175.185C121.93 167.372 116.803 137.868 119.166 131.772C120.173 129.05 121.463 126.442 123.014 123.989C124.358 121.957 125.735 120.589 127.052 120.094L130.935 111.045L134.379 105.879L161.4 97.8768L164.387 96.99L171.357 103.791L176.285 108.604L180.922 109.409C181.615 109.53 182.286 109.672 182.932 109.835C186.042 110.552 188.94 111.988 191.395 114.028C199.488 120.903 200.431 133.834 200.25 147.459Z" fill="#274A8E"/>
<path d="M260.561 236.073C257.6 239.787 254.461 243.349 251.147 246.757L239.791 246.765L178.72 246.834L167.725 246.847L160.416 246.856L149.542 246.864L141.178 246.873L125.728 246.89L116.615 246.903L97.4247 246.92L88.2642 246.933L62.8792 246.959L46.9344 246.976L42.6555 246.981C41.7042 246.008 40.7672 245.021 39.8445 244.019C37.5458 241.527 35.3346 238.957 33.2109 236.309L42.0701 236.301L48.1053 236.296L62.0785 236.279L89.0433 236.253L98.1565 236.245L101.841 236.24H101.854L104.747 236.236L106.043 236.232L109.362 236.227H110.765L120.606 236.219L141.832 236.193L151.174 236.184L160.119 236.176L168.504 236.167L180.536 236.154L244.797 236.09L260.561 236.073Z" fill="#C4C4C4"/>
<path d="M115.266 102.01L115.243 102.012C114.001 102.128 112.764 101.745 111.804 100.949C110.844 100.153 110.24 99.0076 110.125 97.7657L107.677 71.6362C107.233 66.9552 107.736 62.233 109.155 57.7502C111.935 49.001 117.984 41.6623 126.042 37.2633C130.203 34.9979 134.779 33.5984 139.495 33.1491C158.788 31.311 165.839 35.3293 177.757 64.755C189.675 94.1808 180.209 90.9244 180.209 90.9244C180.269 91.5541 180.201 92.1894 180.01 92.7924C179.635 93.9688 178.819 94.9548 177.735 95.5444C177.178 95.8463 176.566 96.0332 175.936 96.094C153.126 101.892 130.111 107.995 115.262 102.011L115.266 102.01Z" fill="#1F1F1F"/>
<path d="M157.72 57.9077C160.583 62.144 162.127 67.1339 162.156 72.2469C162.185 77.36 160.698 82.3671 157.883 86.6356C155.068 90.9042 151.051 94.2428 146.34 96.2298C141.629 98.2169 136.434 98.7632 131.413 97.7998C128.088 97.1729 124.922 95.8926 122.096 94.0331C119.27 92.1735 116.842 89.7718 114.951 86.9669C112.093 82.7319 110.554 77.7459 110.527 72.6373C110.499 67.5287 111.985 62.5264 114.797 58.2611C117.608 53.9957 121.62 50.6583 126.325 48.6696C131.031 46.6809 136.22 46.13 141.239 47.0864C144.565 47.7096 147.735 48.9871 150.564 50.8449C153.394 52.7026 155.826 55.1037 157.72 57.9087L157.72 57.9077Z" fill="#9E616A"/>
<path d="M99.5882 74.539C99.2379 70.8369 99.6355 67.1022 100.757 63.5568C101.017 54.884 103.534 47.0285 114.112 47.3582C117.382 45.5794 120.976 44.4765 124.681 44.1151L129.908 43.5989C129.967 43.5931 130.025 43.5874 130.084 43.5819C133.706 43.2449 137.358 43.6245 140.833 44.699C144.308 45.7735 147.537 47.5219 150.336 49.8444C153.135 52.167 155.45 55.0181 157.147 58.235C158.844 61.4519 159.892 64.9716 160.229 68.5932L160.278 69.1166L149.218 70.1978L144.458 60.012L144.693 70.6423L138.981 71.2029L136.581 66.0639L136.698 71.4237C128.217 78.893 115.357 79.2845 99.6422 75.0629L99.5882 74.539Z" fill="#1F1F1F"/>
<path d="M134.964 99.334C134.87 100.195 135.02 101.065 135.395 101.845C135.585 102.245 135.829 102.616 136.122 102.948C136.372 103.23 136.655 103.482 136.964 103.698C137.88 104.336 138.994 104.627 140.105 104.518C140.174 104.511 140.243 104.502 140.312 104.493C140.381 104.483 140.45 104.472 140.518 104.459C140.588 104.446 140.657 104.432 140.725 104.416C140.793 104.4 140.862 104.382 140.931 104.363L144.79 103.282L149.116 91.2201L150.108 101.804L167.66 96.9173L163.452 52.0039L133.536 54.9516L134.357 55.7416C137.083 58.395 139.024 61.7489 139.966 65.4344C140.902 69.1691 141.191 73.0365 140.82 76.8687C140.474 80.7436 139.757 84.5764 138.678 88.3143C137.739 91.6241 136.61 94.877 135.296 98.057C135.126 98.465 135.015 98.8949 134.964 99.334V99.334Z" fill="#1F1F1F"/>
<path d="M138.953 240.94C138.439 240.939 137.931 240.825 137.466 240.604L54.5917 242.718C53.9558 242.417 53.4262 241.93 53.0728 241.321C52.7195 240.713 52.559 240.011 52.6127 239.31C52.6663 238.608 52.9315 237.939 53.3732 237.391C53.815 236.844 54.4124 236.443 55.0868 236.242L109.306 220.075C109.867 219.908 110.462 219.885 111.034 220.009L194.902 230.231C195.644 230.392 196.313 230.791 196.808 231.367C197.302 231.943 197.594 232.666 197.639 233.424C197.684 234.182 197.48 234.934 197.058 235.565C196.636 236.196 196.018 236.671 195.301 236.919L140.089 240.749C139.723 240.875 139.34 240.94 138.953 240.94V240.94Z" fill="#0E1A32"/>
<path d="M142.001 235.171C141.627 235.171 141.259 235.075 140.933 234.893L73.6262 238.037C73.244 237.823 72.9352 237.498 72.7401 237.106C72.5449 236.713 72.4724 236.271 72.532 235.837C72.5916 235.403 72.7806 234.997 73.0743 234.672C73.368 234.347 73.7528 234.117 74.1787 234.014L98.545 228.1C98.9253 228.008 99.3233 228.02 99.6976 228.134L162.268 228.059C162.714 228.195 163.104 228.47 163.382 228.844C163.659 229.218 163.81 229.671 163.812 230.137C163.813 230.603 163.666 231.057 163.391 231.433C163.116 231.809 162.727 232.087 162.283 232.227L142.652 235.071C142.442 235.137 142.222 235.171 142.001 235.171V235.171Z" fill="#1F1F1F"/>
<path d="M134.917 231.583C136.082 232.334 137.397 232.821 138.771 233.009C140.144 233.196 141.542 233.081 142.866 232.67C144.189 232.259 145.407 231.562 146.433 230.63C147.458 229.698 148.267 228.552 148.802 227.273L220.043 232.869L216.599 215.219L143.119 214.519C140.911 213.763 138.502 213.843 136.35 214.745C134.197 215.646 132.45 217.305 131.439 219.408C130.428 221.512 130.223 223.913 130.864 226.157C131.505 228.401 132.947 230.332 134.917 231.583V231.583Z" fill="#A0616A"/>
<path d="M176.996 116.641C176.996 116.641 187.757 108.032 200.672 123.529C209.381 133.98 226.181 197.159 227.574 223.339C227.662 224.996 227.407 226.653 226.825 228.206C226.243 229.76 225.346 231.176 224.191 232.367C223.035 233.557 221.647 234.497 220.112 235.125C218.576 235.754 216.928 236.059 215.269 236.021L177.297 235.36L173.051 211.491L203.03 211.846L176.996 116.641Z" fill="#274A8E"/>
<path d="M134.344 240.95C133.041 240.948 131.752 240.687 130.551 240.182L53.7365 241.934C51.7093 241.089 50.0264 239.584 48.9601 237.664C47.8937 235.744 47.5062 233.52 47.8601 231.352L45.0059 163.892C45.3844 161.483 46.6526 159.302 48.5602 157.782C50.4678 156.262 52.876 155.513 55.3093 155.681L126.623 158.639C127.992 158.729 129.326 159.105 130.541 159.744C131.755 160.383 132.821 161.27 133.67 162.347C134.519 163.425 135.132 164.669 135.47 165.998C135.808 167.328 135.862 168.714 135.629 170.066L143.985 232.815C143.592 235.089 142.41 237.151 140.646 238.639C138.883 240.127 136.651 240.945 134.344 240.95V240.95Z" fill="#0E1A32"/>
<path d="M76.0154 40.1071L43.9581 40.0167C43.0988 40.0157 42.2741 40.3554 41.6649 40.9614C41.0557 41.5674 40.7116 42.3903 40.708 43.2496L40.5918 85.6986C40.59 86.557 40.929 87.381 41.5344 87.9896C42.1397 88.5982 42.9619 88.9416 43.8204 88.9443L61.6032 88.996L75.882 89.0347C76.7411 89.0363 77.5656 88.6966 78.1743 88.0904C78.7829 87.4841 79.1259 86.6609 79.1278 85.8019L79.1364 83.2922L79.2483 43.3572C79.25 42.4977 78.9105 41.6726 78.3044 41.0632C77.6982 40.4538 76.875 40.11 76.0154 40.1071V40.1071Z" fill="#F8F8F8"/>
<path d="M73.7552 42.6427L46.2049 42.5652C45.4004 42.5642 44.6283 42.8821 44.0579 43.4494C43.4874 44.0166 43.165 44.7869 43.1615 45.5914L43.084 72.8834C43.0786 76.4676 44.495 79.9076 47.0225 82.4488C49.55 84.99 52.9823 86.425 56.5664 86.439L61.801 86.4519L73.6347 86.4864C74.4394 86.4881 75.2119 86.1704 75.7826 85.603C76.3532 85.0356 76.6753 84.2649 76.6781 83.4602L76.6867 80.7137L76.7814 45.6861C76.7832 44.8814 76.4655 44.1089 75.8981 43.5382C75.3307 42.9676 74.5599 42.6455 73.7552 42.6427V42.6427Z" fill="white"/>
<path d="M70.66 61.2908H49.1794C49.0101 61.2908 48.8424 61.3241 48.686 61.3889C48.5296 61.4537 48.3875 61.5487 48.2677 61.6684C48.148 61.7881 48.0531 61.9302 47.9883 62.0867C47.9235 62.2431 47.8901 62.4107 47.8901 62.58C47.8901 62.7493 47.9235 62.917 47.9883 63.0734C48.0531 63.2298 48.148 63.372 48.2677 63.4917C48.3875 63.6114 48.5296 63.7064 48.686 63.7712C48.8424 63.836 49.0101 63.8693 49.1794 63.8693H70.66C71.002 63.8693 71.3299 63.7335 71.5717 63.4917C71.8135 63.2499 71.9493 62.922 71.9493 62.58C71.9493 62.2381 71.8135 61.9102 71.5717 61.6684C71.3299 61.4266 71.002 61.2908 70.66 61.2908V61.2908Z" fill="#274A8E"/>
<path d="M53.9017 54.2224H49.1794C48.8375 54.2224 48.5095 54.3582 48.2678 54.6C48.026 54.8418 47.8901 55.1697 47.8901 55.5117C47.8901 55.8536 48.026 56.1815 48.2678 56.4233C48.5095 56.6651 48.8375 56.8009 49.1794 56.8009H53.9017C54.2436 56.8009 54.5716 56.6651 54.8134 56.4233C55.0551 56.1815 55.191 55.8536 55.191 55.5117C55.191 55.1697 55.0551 54.8418 54.8134 54.6C54.5716 54.3582 54.2436 54.2224 53.9017 54.2224V54.2224Z" fill="#274A8E"/>
<path d="M70.66 72.6251H49.1794C48.8375 72.6251 48.5095 72.761 48.2677 73.0027C48.026 73.2445 47.8901 73.5725 47.8901 73.9144C47.8901 74.2563 48.026 74.5843 48.2677 74.826C48.5095 75.0678 48.8375 75.2037 49.1794 75.2037H70.66C71.002 75.2037 71.3299 75.0678 71.5717 74.826C71.8135 74.5843 71.9493 74.2563 71.9493 73.9144C71.9493 73.5725 71.8135 73.2445 71.5717 73.0027C71.3299 72.761 71.002 72.6251 70.66 72.6251V72.6251Z" fill="#274A8E"/>
<path d="M70.6603 66.9601H49.1797C48.8383 66.9601 48.5109 67.0957 48.2696 67.3371C48.0282 67.5785 47.8926 67.9058 47.8926 68.2472C47.8926 68.5886 48.0282 68.9159 48.2696 69.1573C48.5109 69.3987 48.8383 69.5343 49.1797 69.5343H70.6603C71.0017 69.5343 71.3291 69.3987 71.5704 69.1573C71.8118 68.9159 71.9474 68.5886 71.9474 68.2472C71.9474 67.9058 71.8118 67.5785 71.5704 67.3371C71.3291 67.0957 71.0017 66.9601 70.6603 66.9601V66.9601Z" fill="#274A8E"/>
<path d="M66.4863 58.7813C64.9779 58.7813 63.5034 58.334 62.2493 57.496C60.9951 56.658 60.0176 55.467 59.4404 54.0734C58.8632 52.6799 58.7121 51.1464 59.0064 49.667C59.3007 48.1877 60.027 46.8288 61.0936 45.7622C62.1602 44.6956 63.5191 43.9693 64.9985 43.675C66.4778 43.3807 68.0113 43.5317 69.4048 44.109C70.7984 44.6862 71.9895 45.6637 72.8275 46.9179C73.6655 48.172 74.1127 49.6465 74.1127 51.1549C74.1104 53.1768 73.3062 55.1153 71.8765 56.5451C70.4467 57.9748 68.5083 58.779 66.4863 58.7813V58.7813ZM66.4863 44.0584C65.0828 44.0584 63.7107 44.4746 62.5437 45.2544C61.3767 46.0342 60.4671 47.1425 59.93 48.4392C59.3929 49.7359 59.2524 51.1627 59.5262 52.5393C59.8 53.9159 60.4759 55.1804 61.4683 56.1728C62.4608 57.1653 63.7252 57.8412 65.1018 58.115C66.4784 58.3888 67.9053 58.2483 69.202 57.7112C70.4987 57.174 71.607 56.2645 72.3868 55.0975C73.1665 53.9305 73.5827 52.5584 73.5827 51.1549C73.5806 49.2735 72.8323 47.4697 71.5019 46.1393C70.1715 44.8089 68.3677 44.0606 66.4863 44.0584V44.0584Z" fill="#274A8E"/>
<path d="M69.6891 54.1089C69.1623 51.3892 68.0652 48.812 66.4699 46.5472C66.434 46.4885 66.3835 46.4399 66.3234 46.4063C66.2633 46.3727 66.1956 46.355 66.1267 46.355C66.0579 46.355 65.9901 46.3727 65.9301 46.4063C65.87 46.4399 65.8195 46.4885 65.7835 46.5472C64.3942 48.9772 63.5061 51.6611 63.1719 54.4402C63.1101 54.9469 63.9056 54.9424 63.9669 54.4402C64.0786 53.5396 64.2527 52.6478 64.488 51.7713C64.5185 51.7653 64.5482 51.7562 64.5768 51.7441C65.6339 51.2133 66.8281 51.0189 67.999 51.1868C68.0092 51.1883 68.019 51.1861 68.0292 51.1871C68.4158 52.2041 68.7147 53.2523 68.9225 54.3202C69.0195 54.822 69.7859 54.6096 69.6891 54.1089ZM64.7742 50.7963C65.139 49.6643 65.6036 48.5669 66.1623 47.5169C66.7537 48.4205 67.2672 49.3726 67.6973 50.3631C66.7028 50.2884 65.7042 50.4364 64.7742 50.7963V50.7963Z" fill="#274A8E"/>
</g>
<defs>
<clipPath id="clip0_125_157">
<rect width="291" height="291" fill="white"/>
</clipPath>
</defs>
</svg>
