<svg width="26" height="27" viewBox="0 0 26 27" fill="none" xmlns="http://www.w3.org/2000/svg">
<path d="M21.775 21.0938H4.22501C3.57501 21.0938 3.00626 20.7562 2.68126 20.1656C2.35626 19.575 2.43751 18.9 2.76251 18.3094L3.65626 16.875C5.11876 14.5969 5.85001 11.9813 5.85001 9.28125C5.85001 6.15937 7.80001 3.29063 10.6438 2.27813C11.1313 1.35 12.025 0.84375 13 0.84375C13.975 0.84375 14.8688 1.35 15.3563 2.27813C18.2 3.29063 20.15 6.15937 20.15 9.28125C20.15 11.9813 20.8813 14.5969 22.3438 16.875L23.2375 18.3094C23.5625 18.9 23.6438 19.575 23.3188 20.1656C23.075 20.7562 22.425 21.0938 21.775 21.0938Z" fill="#1F1F1F"/>
<path d="M9.0188 22.7812C9.42505 24.7219 11.05 26.1562 13 26.1562C14.95 26.1562 16.575 24.7219 16.9813 22.7812H9.0188Z" fill="#1F1F1F"/>
</svg>
