<svg width="323" height="228" viewBox="0 0 323 228" fill="none" xmlns="http://www.w3.org/2000/svg">
<g clip-path="url(#clip0_243_1711)">
<path d="M186.136 11.0968C188.907 16.6101 183.036 18.1718 176.311 21.1268C169.586 24.0819 164.553 27.3113 161.782 21.798C159.012 16.2847 156.764 5.34184 166.278 1.1614C176.119 -3.16306 183.365 5.58351 186.136 11.0968Z" fill="#0E1A32"/>
<path d="M172.415 21.9393C177.415 21.9393 181.468 18.149 181.468 13.4735C181.468 8.79791 177.415 5.00763 172.415 5.00763C167.415 5.00763 163.361 8.79791 163.361 13.4735C163.361 18.149 167.415 21.9393 172.415 21.9393Z" fill="#FFB8B8"/>
<path d="M217.267 51.0177C216.954 50.6351 216.64 50.2594 216.323 49.894C215.914 49.4183 215.503 48.9576 215.088 48.5118C210.396 43.4484 205.405 40.2601 199.909 39.9188H199.902L199.821 39.9119L188.869 49.894L185.146 53.2857L185.228 53.4718L187.236 58.1492H222.435C220.849 55.688 219.124 53.3074 217.267 51.0177Z" fill="#0E1A32"/>
<path d="M162.57 16.8818L165.811 15.4577L165.359 11.086L167.526 14.7039L169.075 14.0232L168.812 11.473L170.076 13.5835L181.586 8.52603C180.505 6.37488 178.554 4.71339 176.163 3.90706C173.772 3.10074 171.137 3.21564 168.836 4.22648L167.168 4.95944C164.868 5.97029 163.091 7.79428 162.228 10.0301C161.366 12.266 161.489 14.7306 162.57 16.8818Z" fill="#0E1A32"/>
<path d="M237.577 170.55H48.541C46.9285 170.549 45.3826 169.949 44.2424 168.883C43.1022 167.817 42.4608 166.371 42.459 164.863V58.647C42.4603 57.5423 42.9302 56.4832 43.7655 55.7021C44.6008 54.921 45.7333 54.4816 46.9147 54.4803H239.126C240.328 54.4816 241.48 54.9286 242.33 55.7232C243.18 56.5178 243.658 57.5952 243.659 58.719V164.863C243.657 166.371 243.016 167.817 241.876 168.883C240.735 169.949 239.189 170.549 237.577 170.55Z" fill="#EDF2F3"/>
<path d="M54.4387 164.863H231.679C233.243 164.863 234.743 164.282 235.85 163.248C236.956 162.214 237.577 160.811 237.577 159.348V69.1964C237.577 67.7337 236.956 66.331 235.85 65.2967C234.743 64.2625 233.243 63.6814 231.679 63.6814H54.4387C52.8746 63.6814 51.3744 64.2625 50.2684 65.2967C49.1624 66.331 48.541 67.7337 48.541 69.1964V159.348C48.541 160.811 49.1624 162.214 50.2684 163.248C51.3744 164.282 52.8746 164.863 54.4387 164.863Z" fill="#F8F8F8"/>
<path d="M243.575 58.3216H42.374V55.4262C42.3764 53.9133 43.0204 52.4631 44.1647 51.3936C45.3091 50.3242 46.8603 49.7229 48.4782 49.7217H237.471C239.088 49.7229 240.64 50.3242 241.784 51.3936C242.928 52.4631 243.572 53.9133 243.575 55.4262V58.3216Z" fill="#274A8E"/>
<path d="M53.4666 55.5067C54.3386 55.5067 55.0455 54.8456 55.0455 54.0302C55.0455 53.2148 54.3386 52.5538 53.4666 52.5538C52.5946 52.5538 51.8877 53.2148 51.8877 54.0302C51.8877 54.8456 52.5946 55.5067 53.4666 55.5067Z" fill="#F8F8F8"/>
<path d="M59.4598 55.5067C60.3318 55.5067 61.0387 54.8456 61.0387 54.0302C61.0387 53.2148 60.3318 52.5538 59.4598 52.5538C58.5878 52.5538 57.8809 53.2148 57.8809 54.0302C57.8809 54.8456 58.5878 55.5067 59.4598 55.5067Z" fill="#F8F8F8"/>
<path d="M65.4529 55.5067C66.3249 55.5067 67.0318 54.8456 67.0318 54.0302C67.0318 53.2148 66.3249 52.5538 65.4529 52.5538C64.5809 52.5538 63.874 53.2148 63.874 54.0302C63.874 54.8456 64.5809 55.5067 65.4529 55.5067Z" fill="#F8F8F8"/>
<path d="M148.589 145.312H132.739C131.811 145.311 130.921 144.966 130.264 144.352C129.608 143.738 129.238 142.906 129.237 142.038V127.216C129.238 126.348 129.608 125.516 130.264 124.902C130.921 124.288 131.811 123.943 132.739 123.942H148.589C149.518 123.943 150.408 124.288 151.064 124.902C151.721 125.516 152.09 126.348 152.091 127.216V142.038C152.09 142.906 151.721 143.738 151.064 144.352C150.408 144.966 149.518 145.311 148.589 145.312ZM132.739 124.631C132.006 124.632 131.303 124.904 130.785 125.389C130.267 125.874 129.975 126.531 129.975 127.216V142.038C129.975 142.723 130.267 143.38 130.785 143.865C131.303 144.349 132.006 144.622 132.739 144.623H148.589C149.322 144.622 150.025 144.349 150.543 143.865C151.061 143.38 151.353 142.723 151.354 142.038V127.216C151.353 126.531 151.061 125.874 150.543 125.389C150.025 124.904 149.322 124.632 148.589 124.631H132.739Z" fill="#C4C4C4"/>
<path d="M145.456 141.176H135.872C135.579 141.176 135.298 141.067 135.091 140.873C134.884 140.679 134.767 140.416 134.767 140.142V129.112C134.767 128.838 134.884 128.575 135.091 128.381C135.298 128.187 135.579 128.078 135.872 128.078H142.817C143.069 128.078 143.313 128.159 143.509 128.306L146.149 130.289C146.278 130.386 146.382 130.509 146.454 130.648C146.525 130.788 146.562 130.94 146.562 131.095V140.142C146.562 140.416 146.445 140.679 146.238 140.873C146.03 141.067 145.749 141.176 145.456 141.176ZM135.872 128.767C135.775 128.767 135.681 128.804 135.612 128.868C135.543 128.933 135.504 129.021 135.504 129.112V140.142C135.504 140.233 135.543 140.321 135.612 140.385C135.681 140.45 135.775 140.486 135.872 140.487H145.456C145.554 140.486 145.648 140.45 145.717 140.385C145.786 140.321 145.825 140.233 145.825 140.142V131.095C145.825 131.044 145.813 130.993 145.789 130.946C145.765 130.9 145.73 130.859 145.687 130.827L143.047 128.843C142.982 128.794 142.901 128.767 142.817 128.767H135.872Z" fill="#C4C4C4"/>
<path d="M143.613 132.903H137.715C137.618 132.903 137.524 132.867 137.455 132.803C137.385 132.738 137.347 132.65 137.347 132.559C137.347 132.467 137.385 132.38 137.455 132.315C137.524 132.25 137.618 132.214 137.715 132.214H143.613C143.711 132.214 143.805 132.25 143.874 132.315C143.943 132.38 143.982 132.467 143.982 132.559C143.982 132.65 143.943 132.738 143.874 132.803C143.805 132.867 143.711 132.903 143.613 132.903Z" fill="#C4C4C4"/>
<path d="M143.613 134.972H137.715C137.618 134.972 137.524 134.935 137.455 134.871C137.385 134.806 137.347 134.718 137.347 134.627C137.347 134.536 137.385 134.448 137.455 134.383C137.524 134.319 137.618 134.282 137.715 134.282H143.613C143.711 134.282 143.805 134.319 143.874 134.383C143.943 134.448 143.982 134.536 143.982 134.627C143.982 134.718 143.943 134.806 143.874 134.871C143.805 134.935 143.711 134.972 143.613 134.972Z" fill="#C4C4C4"/>
<path d="M143.613 137.04H137.715C137.618 137.04 137.524 137.003 137.455 136.939C137.385 136.874 137.347 136.786 137.347 136.695C137.347 136.604 137.385 136.516 137.455 136.451C137.524 136.387 137.618 136.35 137.715 136.35H143.613C143.711 136.35 143.805 136.387 143.874 136.451C143.943 136.516 143.982 136.604 143.982 136.695C143.982 136.786 143.943 136.874 143.874 136.939C143.805 137.003 143.711 137.04 143.613 137.04Z" fill="#C4C4C4"/>
<path d="M186.187 145.312H170.337C169.408 145.311 168.518 144.966 167.862 144.352C167.205 143.738 166.836 142.906 166.835 142.038V127.216C166.836 126.348 167.205 125.516 167.862 124.902C168.518 124.288 169.408 123.943 170.337 123.942H186.187C187.115 123.943 188.005 124.288 188.662 124.902C189.318 125.516 189.687 126.348 189.689 127.216V142.038C189.687 142.906 189.318 143.738 188.662 144.352C188.005 144.966 187.115 145.311 186.187 145.312ZM170.337 124.631C169.604 124.632 168.901 124.904 168.383 125.389C167.864 125.874 167.573 126.531 167.572 127.216V142.038C167.573 142.723 167.864 143.38 168.383 143.865C168.901 144.349 169.604 144.622 170.337 144.623H186.187C186.92 144.622 187.622 144.349 188.141 143.865C188.659 143.38 188.951 142.723 188.951 142.038V127.216C188.951 126.531 188.659 125.874 188.141 125.389C187.622 124.904 186.92 124.632 186.187 124.631H170.337Z" fill="#C4C4C4"/>
<path d="M183.423 138.418H173.102C172.809 138.418 172.528 138.309 172.32 138.115C172.113 137.921 171.996 137.659 171.996 137.384V131.869C171.996 131.595 172.113 131.332 172.32 131.139C172.528 130.945 172.809 130.836 173.102 130.835H183.423C183.716 130.836 183.997 130.945 184.204 131.139C184.412 131.332 184.528 131.595 184.529 131.869V137.384C184.528 137.659 184.412 137.921 184.204 138.115C183.997 138.309 183.716 138.418 183.423 138.418ZM173.102 131.525C173.004 131.525 172.91 131.561 172.841 131.626C172.772 131.69 172.733 131.778 172.733 131.869V137.384C172.733 137.476 172.772 137.563 172.841 137.628C172.91 137.693 173.004 137.729 173.102 137.729H183.423C183.521 137.729 183.614 137.693 183.683 137.628C183.753 137.563 183.791 137.476 183.792 137.384V131.869C183.791 131.778 183.753 131.69 183.683 131.626C183.614 131.561 183.521 131.525 183.423 131.525H173.102Z" fill="#C4C4C4"/>
<path d="M178.262 135.536C178.055 135.537 177.852 135.482 177.676 135.38L172.169 132.162C172.086 132.113 172.027 132.036 172.005 131.947C171.984 131.858 172 131.764 172.052 131.687C172.104 131.61 172.186 131.554 172.282 131.534C172.377 131.513 172.477 131.529 172.56 131.577L178.067 134.796C178.125 134.83 178.193 134.848 178.262 134.848C178.331 134.848 178.399 134.83 178.457 134.796L183.964 131.577C184.047 131.529 184.147 131.513 184.242 131.534C184.337 131.554 184.42 131.61 184.472 131.687C184.523 131.764 184.54 131.858 184.518 131.947C184.497 132.036 184.438 132.113 184.355 132.162L178.848 135.38C178.672 135.483 178.469 135.537 178.262 135.536Z" fill="#C4C4C4"/>
<path d="M110.992 145.312H95.1414C94.213 145.311 93.3229 144.966 92.6665 144.352C92.01 143.738 91.6407 142.906 91.6396 142.038V127.216C91.6407 126.348 92.01 125.516 92.6665 124.902C93.3229 124.288 94.213 123.943 95.1414 123.942H110.992C111.92 123.943 112.81 124.288 113.466 124.902C114.123 125.516 114.492 126.348 114.493 127.216V142.038C114.492 142.906 114.123 143.738 113.466 144.352C112.81 144.966 111.92 145.311 110.992 145.312ZM95.1414 124.631C94.4085 124.632 93.7058 124.904 93.1875 125.389C92.6692 125.874 92.3777 126.531 92.3769 127.216V142.038C92.3777 142.723 92.6692 143.38 93.1875 143.865C93.7058 144.349 94.4085 144.622 95.1414 144.623H110.992C111.724 144.622 112.427 144.349 112.945 143.865C113.464 143.38 113.755 142.723 113.756 142.038V127.216C113.755 126.531 113.464 125.874 112.945 125.389C112.427 124.904 111.724 124.632 110.992 124.631H95.1414Z" fill="#C4C4C4"/>
<path d="M108.227 138.418H97.9056C97.6124 138.418 97.3314 138.309 97.124 138.115C96.9167 137.921 96.8001 137.659 96.7998 137.384V131.869C96.8001 131.595 96.9167 131.332 97.124 131.139C97.3314 130.945 97.6124 130.836 97.9056 130.835H108.227C108.52 130.836 108.801 130.945 109.008 131.139C109.216 131.332 109.332 131.595 109.332 131.869V137.384C109.332 137.659 109.216 137.921 109.008 138.115C108.801 138.309 108.52 138.418 108.227 138.418ZM97.9056 131.525C97.8079 131.525 97.7142 131.561 97.6451 131.626C97.576 131.69 97.5371 131.778 97.537 131.869V137.384C97.5371 137.476 97.576 137.563 97.6451 137.628C97.7142 137.693 97.8079 137.729 97.9056 137.729H108.227C108.324 137.729 108.418 137.693 108.487 137.628C108.556 137.563 108.595 137.476 108.595 137.384V131.869C108.595 131.778 108.556 131.69 108.487 131.626C108.418 131.561 108.324 131.525 108.227 131.525H97.9056Z" fill="#C4C4C4"/>
<path d="M106.591 138.418H99.1728C99.0434 138.418 98.9163 138.387 98.8042 138.326C98.6921 138.266 98.599 138.179 98.5343 138.074C98.4696 137.969 98.4355 137.85 98.4355 137.729C98.4356 137.608 98.4697 137.489 98.5344 137.384L100.769 133.765C100.833 133.66 100.927 133.573 101.039 133.513C101.151 133.452 101.278 133.421 101.407 133.421C101.537 133.421 101.664 133.452 101.776 133.513C101.888 133.573 101.981 133.66 102.046 133.765L103.489 136.103L104.325 134.748C104.39 134.644 104.483 134.557 104.595 134.496C104.707 134.436 104.834 134.404 104.963 134.404C105.093 134.404 105.22 134.436 105.332 134.496C105.444 134.557 105.537 134.644 105.602 134.748L107.229 137.384C107.294 137.489 107.328 137.608 107.328 137.729C107.328 137.85 107.294 137.969 107.229 138.074C107.164 138.179 107.071 138.266 106.959 138.326C106.847 138.387 106.72 138.418 106.591 138.418H106.591ZM106.591 137.729L104.963 135.093L103.808 136.964C103.776 137.017 103.729 137.06 103.673 137.09C103.617 137.121 103.554 137.137 103.489 137.137C103.424 137.137 103.361 137.121 103.305 137.09C103.248 137.06 103.202 137.017 103.17 136.964L101.407 134.11L99.1728 137.729H106.591Z" fill="#C4C4C4"/>
<path d="M107.121 133.593C107.528 133.593 107.858 133.284 107.858 132.903C107.858 132.523 107.528 132.214 107.121 132.214C106.714 132.214 106.384 132.523 106.384 132.903C106.384 133.284 106.714 133.593 107.121 133.593Z" fill="#C4C4C4"/>
<path d="M283.394 223.408L278.875 223.407L276.726 207.108L283.395 207.108L283.394 223.408Z" fill="#FFB8B8"/>
<path d="M284.547 227.504L269.976 227.504V227.331C269.976 226.635 270.122 225.945 270.407 225.302C270.692 224.658 271.11 224.074 271.637 223.581C272.163 223.089 272.789 222.698 273.477 222.431C274.165 222.165 274.902 222.028 275.647 222.028H275.648L284.547 222.028L284.547 227.504Z" fill="#0E1A32"/>
<path d="M301.825 223.408L297.306 223.407L295.156 207.108L301.826 207.108L301.825 223.408Z" fill="#FFB8B8"/>
<path d="M302.977 227.504L288.406 227.504V227.331C288.406 226.635 288.553 225.945 288.838 225.302C289.123 224.658 289.541 224.074 290.067 223.581C290.594 223.089 291.219 222.698 291.907 222.431C292.595 222.165 293.333 222.028 294.078 222.028H294.078L302.978 222.028L302.977 227.504Z" fill="#0E1A32"/>
<path d="M300.47 216.342L296.284 215.151C295.972 215.063 295.695 214.89 295.488 214.655C295.28 214.42 295.151 214.133 295.117 213.83L291.215 179.249C291.212 179.207 291.192 179.168 291.16 179.14C291.127 179.111 291.084 179.095 291.039 179.095C290.994 179.091 290.949 179.103 290.914 179.13C290.879 179.156 290.856 179.194 290.851 179.236L284.315 212.739C284.275 212.942 284.193 213.136 284.072 213.309C283.951 213.482 283.794 213.631 283.611 213.746C283.428 213.862 283.222 213.942 283.005 213.982C282.788 214.022 282.565 214.022 282.349 213.98L277 212.95C276.607 212.873 276.258 212.666 276.015 212.368C275.773 212.07 275.653 211.699 275.679 211.325L279.655 156.413L306.614 153.693L302.608 214.952C302.582 215.346 302.397 215.716 302.09 215.987C301.783 216.257 301.377 216.409 300.955 216.41C300.791 216.409 300.627 216.387 300.47 216.342Z" fill="#0E1A32"/>
<path d="M300.444 108.592C305.444 108.592 309.497 104.802 309.497 100.127C309.497 95.451 305.444 91.6608 300.444 91.6608C295.444 91.6608 291.391 95.451 291.391 100.127C291.391 104.802 295.444 108.592 300.444 108.592Z" fill="#FFB8B8"/>
<path d="M279.613 156.735L285.459 122.318C285.77 120.488 286.494 118.741 287.583 117.193C288.672 115.645 290.101 114.332 291.775 113.341C293.449 112.349 295.329 111.703 297.291 111.444C299.253 111.185 301.252 111.32 303.154 111.84C306.479 112.739 309.327 114.765 311.14 117.523C312.953 120.28 313.602 123.571 312.959 126.752L306.844 157.488L279.613 156.735Z" fill="#FFCD2C"/>
<path d="M302.944 162.893C303.396 162.614 303.777 162.246 304.061 161.814C304.344 161.382 304.523 160.897 304.584 160.394C304.646 159.89 304.588 159.38 304.416 158.9C304.244 158.419 303.961 157.98 303.588 157.613L309.632 146.669L302.825 147.348L298.129 157.636C297.511 158.264 297.161 159.082 297.144 159.935C297.128 160.788 297.446 161.617 298.04 162.265C298.633 162.912 299.46 163.334 300.364 163.45C301.268 163.566 302.186 163.368 302.944 162.893V162.893Z" fill="#FFB8B8"/>
<path d="M304.238 155.682C303.903 155.638 303.591 155.5 303.343 155.286L301.031 153.288C300.781 153.071 300.609 152.787 300.537 152.476C300.465 152.164 300.497 151.84 300.628 151.546L305.25 141.302L304.594 121.062C304.689 120.412 304.919 119.785 305.272 119.217C305.626 118.65 306.095 118.154 306.654 117.756C307.213 117.359 307.85 117.068 308.529 116.901C309.208 116.734 309.916 116.693 310.612 116.782C311.307 116.871 311.977 117.087 312.584 117.418C313.19 117.749 313.721 118.189 314.145 118.712C314.57 119.235 314.88 119.831 315.058 120.466C315.236 121.101 315.279 121.763 315.183 122.413L316.304 135.136C316.645 138.998 315.474 142.843 313.01 145.958L305.803 155.069C305.664 155.244 305.487 155.39 305.285 155.497C305.082 155.604 304.857 155.67 304.625 155.691C304.496 155.702 304.366 155.699 304.238 155.682Z" fill="#FFCD2C"/>
<path d="M248.309 95.5141C248.408 96.0123 248.622 96.4843 248.937 96.8967C249.251 97.3092 249.659 97.6521 250.131 97.9012C250.603 98.1504 251.127 98.2998 251.668 98.3389C252.208 98.3779 252.751 98.3058 253.258 98.1275L261.679 107.599L263.664 101.473L255.363 93.4181C254.986 92.6412 254.318 92.0205 253.484 91.6736C252.65 91.3268 251.71 91.2779 250.84 91.5363C249.971 91.7946 249.233 92.3423 248.766 93.0754C248.3 93.8085 248.137 94.6763 248.309 95.5141Z" fill="#FFB8B8"/>
<path d="M254.905 99.44C255.079 99.1693 255.337 98.9546 255.645 98.8245L258.514 97.6123C258.825 97.4818 259.171 97.4437 259.506 97.5032C259.841 97.5627 260.148 97.7169 260.386 97.945L268.672 105.918L288.859 113.245C289.463 113.58 289.991 114.023 290.412 114.548C290.833 115.074 291.139 115.672 291.313 116.308C291.486 116.944 291.524 117.607 291.424 118.256C291.324 118.906 291.088 119.532 290.729 120.096C290.37 120.661 289.896 121.154 289.334 121.547C288.771 121.94 288.131 122.225 287.45 122.387C286.77 122.548 286.062 122.583 285.367 122.489C284.672 122.394 284.004 122.173 283.4 121.837L270.434 117.841C266.498 116.629 263.168 114.122 261.061 110.785L254.899 101.027C254.781 100.839 254.706 100.63 254.68 100.414C254.653 100.197 254.676 99.9779 254.746 99.7702C254.785 99.6546 254.838 99.5438 254.905 99.44Z" fill="#FFCD2C"/>
<path opacity="0.1" d="M307.788 129.482L307.419 140.512L300.629 151.545L306.299 139.249L307.788 129.482Z" fill="#1F1F1F"/>
<path d="M299.407 101.718C298.839 101.787 298.263 101.66 297.786 101.362C297.309 101.064 296.965 100.615 296.816 100.097C296.672 99.5008 296.358 98.9526 295.907 98.5109C295.455 98.0693 294.884 97.7508 294.254 97.5897C292.593 97.2348 290.563 97.9658 289.346 96.7892C289.086 96.5206 288.897 96.1979 288.796 95.8478C288.695 95.4977 288.685 95.1301 288.766 94.7754C288.99 93.6321 289.864 92.7683 290.816 92.0774C292.819 90.6304 295.243 89.7832 297.77 89.6472C299.079 89.6118 300.388 89.6726 301.685 89.8293C303.044 89.9095 304.388 90.1392 305.69 90.5136C307.172 91.0368 308.49 91.901 309.521 93.0264C310.552 94.1518 311.263 95.5021 311.588 96.9524C311.886 98.4072 311.84 99.9052 311.454 101.342C311.069 102.778 310.352 104.119 309.355 105.27C308.162 106.66 306.623 107.755 304.873 108.461C304.456 108.645 303.978 108.668 303.544 108.524C302.454 108.119 302.632 106.856 303.129 106.014C303.661 105.113 304.479 104.24 304.051 103.143C303.837 102.635 303.425 102.22 302.899 101.983C301.815 101.466 300.603 101.588 299.438 101.714L299.407 101.718Z" fill="#0E1A32"/>
<path d="M245.283 106.498H133.227C131.614 106.497 130.068 105.897 128.928 104.831C127.788 103.764 127.146 102.319 127.145 100.811V78.4065C127.146 76.8986 127.788 75.453 128.928 74.3868C130.068 73.3206 131.614 72.7209 133.227 72.7192H245.283C246.896 72.7209 248.442 73.3207 249.582 74.3869C250.722 75.4531 251.363 76.8986 251.365 78.4065V100.811C251.363 102.319 250.722 103.764 249.582 104.831C248.442 105.897 246.896 106.497 245.283 106.498Z" fill="#F8F8F8"/>
<path d="M245.284 106.671H133.227C131.566 106.669 129.973 106.051 128.798 104.953C127.624 103.854 126.963 102.365 126.961 100.811V78.4065C126.963 76.853 127.624 75.3636 128.798 74.2651C129.973 73.1665 131.566 72.5486 133.227 72.5469H245.284C246.945 72.5486 248.538 73.1665 249.713 74.2651C250.887 75.3636 251.548 76.853 251.55 78.4065V100.811C251.548 102.365 250.887 103.854 249.713 104.953C248.538 106.051 246.945 106.669 245.284 106.671ZM133.227 73.2362C131.761 73.2378 130.356 73.783 129.319 74.7523C128.283 75.7216 127.7 77.0358 127.698 78.4065V100.811C127.7 102.182 128.283 103.496 129.319 104.465C130.356 105.435 131.761 105.98 133.227 105.981H245.284C246.75 105.98 248.155 105.435 249.192 104.465C250.228 103.496 250.811 102.182 250.813 100.811V78.4065C250.811 77.0358 250.228 75.7216 249.192 74.7523C248.155 73.783 246.75 73.2378 245.284 73.2362H133.227Z" fill="#0E1A32"/>
<path d="M231.645 100.983H146.865C145.253 100.982 143.707 100.382 142.567 99.3158C141.426 98.2496 140.785 96.804 140.783 95.2961V83.5768C140.785 82.069 141.426 80.6234 142.567 79.5572C143.707 78.4909 145.253 77.8912 146.865 77.8895H231.645C233.257 77.8912 234.803 78.4909 235.943 79.5572C237.084 80.6234 237.725 82.069 237.727 83.5768V95.2961C237.725 96.804 237.084 98.2496 235.943 99.3158C234.803 100.382 233.257 100.982 231.645 100.983Z" fill="#EDF2F3"/>
<path d="M165.109 94.6669C169.126 94.6669 172.383 91.6218 172.383 87.8654C172.383 84.1091 169.126 81.064 165.109 81.064C161.092 81.064 157.836 84.1091 157.836 87.8654C157.836 91.6218 161.092 94.6669 165.109 94.6669Z" fill="#FFCD2C"/>
<path d="M226.376 100.297L216.11 92.2453L206.02 84.3326C205.754 84.1238 205.418 84.0096 205.07 84.0103C204.723 84.0109 204.386 84.1263 204.121 84.336L194.064 92.285L191.608 94.2268L187.904 91.322L176.648 82.4943C176.382 82.2855 176.045 82.1713 175.697 82.1719C175.35 82.1726 175.014 82.2879 174.749 82.4977L163.529 91.3659L152.133 100.374C152.075 100.419 152.034 100.48 152.014 100.549C151.995 100.617 151.998 100.689 152.025 100.756C152.051 100.822 152.098 100.879 152.16 100.92C152.222 100.96 152.296 100.982 152.371 100.982L175.736 100.94L183.132 100.926L183.059 100.983L205.105 100.944L226.14 100.906C226.216 100.906 226.29 100.884 226.351 100.843C226.413 100.803 226.46 100.745 226.486 100.679C226.512 100.612 226.515 100.54 226.496 100.472C226.476 100.403 226.434 100.342 226.376 100.297Z" fill="#0E1A32"/>
<path d="M322.631 228H251.859C251.761 228 251.667 227.964 251.598 227.899C251.529 227.834 251.49 227.747 251.49 227.655C251.49 227.564 251.529 227.476 251.598 227.412C251.667 227.347 251.761 227.311 251.859 227.311H322.631C322.729 227.311 322.823 227.347 322.892 227.412C322.961 227.476 323 227.564 323 227.655C323 227.747 322.961 227.834 322.892 227.899C322.823 227.964 322.729 228 322.631 228Z" fill="#C4C4C4"/>
<path d="M222.66 45.4682C222.365 45.0209 221.976 44.6343 221.517 44.3321C221.057 44.0298 220.537 43.8183 219.987 43.7103C219.786 43.6707 219.581 43.6465 219.375 43.638L191.291 20.158C190.739 19.6278 190.004 19.299 189.216 19.2308C189.06 19.2141 188.904 19.2095 188.748 19.217C188.1 19.2445 187.474 19.448 186.948 19.8026C186.422 20.1571 186.017 20.6474 185.784 21.2135C185.551 21.7795 185.5 22.3968 185.636 22.9898C185.772 23.5829 186.09 24.126 186.551 24.5527L197.303 33.3181L214.959 47.7087C214.974 47.9797 215.017 48.2488 215.088 48.5118C215.3 49.2739 215.754 49.9579 216.39 50.4731C217.027 50.9884 217.816 51.3105 218.653 51.3968C219.416 51.4802 220.189 51.3607 220.883 51.0521C221.433 50.8115 221.921 50.4623 222.313 50.0284C222.354 49.9836 222.39 49.9423 222.427 49.894C222.943 49.2659 223.241 48.5058 223.283 47.715C223.324 46.9243 223.107 46.1405 222.659 45.4682H222.66Z" fill="#FFB8B8"/>
<path d="M174.622 68.0968L174.361 58.1492L174.139 49.894L173.988 44.1171L173.69 32.8562C173.631 32.2533 173.385 31.6795 172.983 31.2049C172.581 30.7302 172.04 30.3753 171.426 30.1834C170.812 29.9915 170.151 29.971 169.525 30.1243C168.899 30.2775 168.334 30.598 167.899 31.0466C167.797 31.1491 167.704 31.2598 167.622 31.3775C167.169 31.9853 166.964 32.7257 167.047 33.4628L167.704 49.894L168.032 58.1492L168.452 68.6794C168.331 68.8341 168.221 68.9965 168.124 69.1654C167.862 69.6302 167.703 70.1399 167.658 70.6637C167.613 71.1875 167.683 71.7144 167.862 72.2124C168.049 72.7346 168.353 73.2138 168.753 73.6184C169.152 74.023 169.639 74.3438 170.181 74.5597C170.723 74.7756 171.307 74.8817 171.896 74.871C172.485 74.8603 173.065 74.7331 173.598 74.4977C174.216 74.2242 174.753 73.8125 175.161 73.2989C175.569 72.7853 175.835 72.1857 175.937 71.553C176.038 70.9203 175.971 70.274 175.742 69.6712C175.513 69.0684 175.128 68.5277 174.622 68.0968H174.622Z" fill="#FFB8B8"/>
<path d="M199.909 39.9188L197.303 33.3181L193.086 22.626C192.782 21.848 192.294 21.1441 191.659 20.5665C191.024 19.9889 190.258 19.5524 189.418 19.2894C189.352 19.2687 189.282 19.248 189.216 19.2308C188.402 18.9998 187.544 18.9363 186.702 19.0446C185.86 19.1529 185.052 19.4304 184.335 19.8581L170.133 28.2822C168.832 29.052 167.902 30.2643 167.54 31.6632C167.177 33.0622 167.411 34.538 168.19 35.7791C169.966 38.651 171.902 41.4341 173.988 44.1171C175.644 46.2231 178.725 46.4471 179.26 49.894H189.732L200.333 40.9942L199.909 39.9188Z" fill="#C4C4C4"/>
<path d="M37.2903 120.59C42.0075 120.59 45.8315 117.014 45.8315 112.603C45.8315 108.192 42.0075 104.616 37.2903 104.616C32.5731 104.616 28.749 108.192 28.749 112.603C28.749 117.014 32.5731 120.59 37.2903 120.59Z" fill="#A0616A"/>
<path d="M58.2591 107.105C58.3433 107.167 58.4249 107.234 58.5039 107.304C58.8962 107.65 59.2061 108.069 59.4131 108.534C59.6201 109 59.7196 109.501 59.7051 110.005C59.6906 110.509 59.5624 111.004 59.3289 111.458C59.0953 111.913 58.7618 112.316 58.3501 112.641C58.2541 112.716 58.154 112.787 58.0501 112.852L58.6282 131.102C58.6446 131.699 58.4547 132.286 58.0865 132.774C57.7183 133.263 57.1915 133.627 56.5843 133.813L56.549 133.821L40.7031 135.398C40.2723 135.441 39.8367 135.404 39.4214 135.288C39.0061 135.173 38.6195 134.982 38.2837 134.726C37.9479 134.47 37.6696 134.154 37.465 133.797C37.2604 133.44 37.1335 133.049 37.0916 132.645C37.0496 132.242 37.0936 131.835 37.2208 131.448C37.348 131.061 37.556 130.701 37.8328 130.389C38.1095 130.077 38.4496 129.82 38.8333 129.632C39.217 129.444 39.6367 129.329 40.0683 129.293L51.364 128.363L53.3175 112.559C53.1897 112.453 53.07 112.339 52.9594 112.217C52.3469 111.54 52.0256 110.673 52.058 109.786C52.0904 108.899 52.4741 108.055 53.1346 107.418C53.7952 106.781 54.6854 106.396 55.6323 106.338C56.5793 106.28 57.5155 106.553 58.2591 107.105H58.2591Z" fill="#A0616A"/>
<path d="M51.3572 223.761H55.6209L57.6489 208.383H51.3564L51.3572 223.761Z" fill="#A0616A"/>
<path d="M50.2695 222.459L58.6657 222.459H58.666C59.3687 222.459 60.0645 222.588 60.7137 222.84C61.3628 223.091 61.9527 223.46 62.4496 223.924C62.9464 224.389 63.3406 224.94 63.6095 225.548C63.8784 226.155 64.0168 226.805 64.0167 227.462V227.625L50.2698 227.625L50.2695 222.459Z" fill="#0E1A32"/>
<path d="M8.98145 218.249L12.6447 220.288L22.8009 208.046L17.3942 205.036L8.98145 218.249Z" fill="#A0616A"/>
<path d="M8.75894 216.61L15.9732 220.627L15.9735 220.627C16.5772 220.963 17.1043 221.407 17.5245 221.934C17.9447 222.46 18.2499 223.059 18.4226 223.696C18.5953 224.333 18.6322 224.995 18.5311 225.646C18.43 226.296 18.1929 226.921 17.8334 227.486L17.7444 227.625L5.93262 221.049L8.75894 216.61Z" fill="#0E1A32"/>
<path d="M56.6267 218.329H51.8526C51.4661 218.33 51.093 218.197 50.8056 217.955C50.5182 217.713 50.3368 217.38 50.2966 217.021L45.4836 174.715C45.4715 174.608 45.4222 174.509 45.3434 174.431C45.2646 174.353 45.1606 174.302 45.0475 174.285C44.9344 174.268 44.8185 174.286 44.7177 174.337C44.6168 174.388 44.5366 174.468 44.4894 174.566L35.8067 192.544L20.4345 215.984C20.2355 216.284 19.9275 216.508 19.5668 216.613C19.206 216.718 18.8168 216.699 18.4702 216.558L12.3291 214.031C12.1261 213.948 11.9443 213.825 11.796 213.67C11.6476 213.516 11.536 213.334 11.4686 213.136C11.4012 212.939 11.3794 212.73 11.4048 212.524C11.4302 212.318 11.5022 212.119 11.616 211.941L25.7473 189.815L30.0812 171.173C28.7181 163.088 34.5617 151.068 34.6209 150.948L34.6499 150.889L50.746 145.006L50.8267 145.098C57.1746 164.578 61.0427 185.541 58.1866 216.989C58.1514 217.354 57.9721 217.693 57.6837 217.941C57.3953 218.189 57.0185 218.327 56.6267 218.329Z" fill="#0E1A32"/>
<path d="M34.0018 152.859L33.9268 152.711C33.891 152.641 30.3119 145.582 27.5529 138.038C27.0226 136.579 26.8222 135.033 26.9642 133.498C27.1063 131.962 27.5877 130.472 28.378 129.12C29.1786 127.753 30.2739 126.558 31.5945 125.608C32.9151 124.659 34.4322 123.976 36.0497 123.603C38.8577 122.974 41.8141 123.309 44.3803 124.547C46.9464 125.785 48.9514 127.844 50.0302 130.348C52.2187 135.466 51.5212 140.928 50.8648 145.224L50.8517 145.31L50.768 145.348L34.0018 152.859Z" fill="#0E1A32"/>
<path d="M47.6465 108.091H34.084V102.563C37.0608 101.457 39.9738 100.516 41.7346 102.563C43.3025 102.563 44.8062 103.145 45.9149 104.182C47.0236 105.219 47.6464 106.625 47.6465 108.091V108.091Z" fill="#0E1A32"/>
<path d="M33.3324 101.587C25.2245 101.587 22.9551 111.091 22.9551 116.452C22.9551 119.442 24.4011 120.511 26.6734 120.873L27.4759 116.871L29.3554 121.045C29.9937 121.048 30.6643 121.037 31.3595 121.025L31.9967 119.798L33.4178 121.003C39.1094 121.011 43.7096 121.786 43.7096 116.452C43.7096 111.091 41.7193 101.587 33.3324 101.587Z" fill="#0E1A32"/>
<path d="M71.1412 228H0.368607C0.270846 228 0.177089 227.964 0.107962 227.899C0.038835 227.834 0 227.747 0 227.655C0 227.564 0.038835 227.476 0.107962 227.412C0.177089 227.347 0.270846 227.311 0.368607 227.311H71.1412C71.2389 227.311 71.3327 227.347 71.4018 227.412C71.4709 227.476 71.5098 227.564 71.5098 227.655C71.5098 227.747 71.4709 227.834 71.4018 227.899C71.3327 227.964 71.2389 228 71.1412 228Z" fill="#C4C4C4"/>
<path d="M72.472 114.599H56.6219C55.6935 114.598 54.8034 114.252 54.1469 113.638C53.4905 113.024 53.1212 112.192 53.1201 111.324V96.5025C53.1212 95.6344 53.4905 94.8021 54.1469 94.1882C54.8034 93.5743 55.6935 93.229 56.6219 93.228H72.472C73.4004 93.229 74.2905 93.5743 74.947 94.1882C75.6034 94.8021 75.9727 95.6344 75.9738 96.5025V111.324C75.9727 112.192 75.6034 113.024 74.947 113.638C74.2905 114.252 73.4004 114.598 72.472 114.599Z" fill="#F8F8F8"/>
<path d="M72.472 114.599H56.6219C55.6935 114.598 54.8034 114.252 54.1469 113.638C53.4905 113.024 53.1212 112.192 53.1201 111.324V96.5025C53.1212 95.6344 53.4905 94.8021 54.1469 94.1882C54.8034 93.5743 55.6935 93.229 56.6219 93.228H72.472C73.4004 93.229 74.2905 93.5743 74.947 94.1882C75.6034 94.8021 75.9727 95.6344 75.9738 96.5025V111.324C75.9727 112.192 75.6034 113.024 74.947 113.638C74.2905 114.252 73.4004 114.598 72.472 114.599ZM56.6219 93.9174C55.8889 93.9182 55.1862 94.1908 54.668 94.6754C54.1497 95.1601 53.8581 95.8172 53.8573 96.5025V111.324C53.8581 112.009 54.1497 112.666 54.668 113.151C55.1862 113.636 55.8889 113.908 56.6219 113.909H72.472C73.205 113.908 73.9077 113.636 74.4259 113.151C74.9442 112.666 75.2357 112.009 75.2366 111.324V96.5025C75.2357 95.8172 74.9442 95.1601 74.4259 94.6754C73.9077 94.1908 73.205 93.9182 72.472 93.9174H56.6219Z" fill="#0E1A32"/>
<path d="M69.7071 108.567H59.3861C59.0929 108.566 58.8118 108.457 58.6045 108.263C58.3972 108.069 58.2806 107.807 58.2803 107.532V100.294C58.2806 100.02 58.3972 99.7571 58.6045 99.5632C58.8118 99.3694 59.0929 99.2603 59.3861 99.26H62.2916C62.4806 99.2594 62.6665 99.3043 62.8315 99.3905C62.9965 99.4766 63.1349 99.6012 63.2334 99.752L64.0437 100.983H69.7071C70.0003 100.984 70.2814 101.093 70.4887 101.287C70.696 101.481 70.8126 101.743 70.8129 102.017V107.532C70.8126 107.807 70.696 108.069 70.4887 108.263C70.2814 108.457 70.0003 108.566 69.7071 108.567Z" fill="#274A8E"/>
<path d="M69.3721 112.223C69.4236 112.312 69.4713 112.402 69.515 112.496C69.7332 112.957 69.8448 113.456 69.8424 113.96C69.8401 114.464 69.7239 114.962 69.5014 115.421C69.2789 115.88 68.9552 116.29 68.5514 116.624C68.1477 116.958 67.673 117.208 67.1586 117.359C67.0389 117.393 66.9173 117.422 66.7944 117.445L59.7542 134.474C59.5214 135.03 59.103 135.502 58.5609 135.819C58.0189 136.135 57.3821 136.28 56.7451 136.231L56.7098 136.225L41.4506 131.93C41.0358 131.813 40.6498 131.62 40.3149 131.363C39.98 131.106 39.703 130.79 39.4997 130.432C39.2964 130.074 39.1709 129.682 39.1305 129.279C39.0901 128.875 39.1356 128.468 39.2642 128.082C39.3929 127.695 39.6023 127.336 39.8803 127.025C40.1583 126.714 40.4993 126.458 40.8838 126.271C41.2683 126.084 41.6885 125.97 42.1202 125.936C42.5519 125.902 42.9866 125.948 43.3991 126.072L54.1958 129.314L62.5545 115.457C62.4806 115.313 62.4176 115.164 62.366 115.012C62.0828 114.165 62.1464 113.25 62.5443 112.445C62.9422 111.639 63.6461 111 64.5192 110.653C65.3924 110.305 66.3725 110.273 67.2693 110.564C68.1661 110.854 68.9155 111.445 69.3721 112.223H69.3721Z" fill="#A0616A"/>
</g>
<defs>
<clipPath id="clip0_243_1711">
<rect width="323" height="228" fill="white"/>
</clipPath>
</defs>
</svg>
